  <svg width="23" height="23" viewBox="0 0 23 23" fill="none" xmlns="http://www.w3.org/2000/svg">
              <path
                d="M21.3666 13.3369C22.9598 6.17772 16.6879 -0.326034 9.3225 0.922466C5.324 -1.55895 0 1.24513 0 6.00263C0 7.10905 0.30525 8.14488 0.836 9.03772C-0.644417 16.2134 5.67875 22.6236 13.0378 21.2899C18.2398 24.0408 23.9883 18.5546 21.3666 13.3369ZM14.3651 17.6544C12.4328 18.4491 9.25283 18.4537 7.32875 17.4463C4.58517 15.9833 4.0975 12.6897 6.46433 12.6897C8.24817 12.6897 7.6835 14.7696 9.48475 15.6175C10.3116 15.9998 12.089 16.0392 13.1221 15.3426C14.1423 14.6596 14.0488 13.5853 13.4943 13.072C12.0248 11.7153 7.82008 12.2543 5.89783 9.87922C5.06275 8.84888 4.90508 7.03113 5.93175 5.71297C7.72108 3.4103 12.9718 3.27005 15.2295 5.00897C17.314 6.6223 16.7512 8.76363 15.0691 8.76363C13.046 8.76363 14.1093 6.1163 10.8433 6.1163C8.4755 6.1163 7.54417 7.80022 9.21158 8.61972C11.4721 9.74263 17.2324 9.36772 17.2324 13.7558C17.2278 15.5818 16.1086 16.9431 14.3651 17.6544Z"
                fill="white" />
            </svg>