    <svg width="22" height="19" viewBox="0 0 22 18" fill="none" xmlns="http://www.w3.org/2000/svg">
              <path
                d="M20.0667 0.624023H1.93386C1.63622 0.624023 1.35757 0.697199 1.10547 0.817813L10.9573 10.6696L13.1654 8.54755L20.8954 0.817984C20.6432 0.697285 20.3644 0.624023 20.0667 0.624023Z"
                fill="white" />
              <path
                d="M21.8061 1.72949L14.5322 9.00299L21.8058 16.2766C21.9265 16.0245 21.9996 15.7459 21.9996 15.4482V2.55759C21.9996 2.26011 21.9266 1.9815 21.8061 1.72949Z"
                fill="white" />
              <path
                d="M0.193789 1.72949C0.0731758 1.98159 0 2.26024 0 2.55789V15.4485C0 15.746 0.0730898 16.0247 0.193617 16.2767L7.4675 9.0032L0.193789 1.72949Z"
                fill="white" />
              <path
                d="M13.6208 9.91415L11.4124 12.0365C11.2865 12.1624 11.1215 12.2254 10.9567 12.2254C10.7918 12.2254 10.6268 12.1624 10.501 12.0365L8.3785 9.91406L1.10449 17.1876C1.35663 17.3083 1.63546 17.3816 1.93319 17.3816H20.066C20.3636 17.3816 20.6423 17.3084 20.8944 17.1878L13.6208 9.91415Z"
                fill="white" />
            </svg>