 <svg width="21" height="21" viewBox="0 0 21 22" fill="none" xmlns="http://www.w3.org/2000/svg">
              <path
                d="M15.7333 0.00292969H5.25C2.36667 0.00292969 0 2.3696 0 5.2696V15.7529C0 18.6363 2.36667 21.0029 5.25 21.0029H15.7333C18.6333 21.0029 21 18.6363 21 15.7363V5.2696C21 2.3696 18.6333 0.00292969 15.7333 0.00292969ZM9.93333 4.3196C9.96667 3.80293 10.45 3.98626 10.7 3.95293C13.8333 4.05293 16.5333 6.8696 16.5 9.90293C16.5 10.2029 16.6 10.6363 16.15 10.6363C15.7167 10.6363 15.8333 10.1863 15.7833 9.88626C15.3667 6.6696 13.8667 5.15293 10.6 4.65293C10.3333 4.6196 9.91667 4.6696 9.93333 4.3196ZM14.6167 10.0363C14.1167 10.1029 14.2167 9.6696 14.1667 9.38626C13.8333 7.4196 13.1333 6.70293 11.1167 6.2696C10.8167 6.20293 10.35 6.25293 10.4333 5.80293C10.5 5.3696 10.9167 5.5196 11.2333 5.55293C13.25 5.78626 14.9 7.50293 14.8833 9.38626C14.85 9.58626 14.9833 9.9696 14.6167 10.0363ZM13.3667 9.00293C13.3667 9.2696 13.3333 9.5196 13.0333 9.55293C12.8167 9.58626 12.6833 9.40293 12.65 9.18626C12.5667 8.38626 12.1333 7.90293 11.3 7.7696C11.05 7.73626 10.8167 7.65293 10.9333 7.3196C11.0167 7.10293 11.2167 7.0696 11.4333 7.0696C12.3333 7.05293 13.3667 8.10293 13.3667 9.00293ZM16.5333 15.1529C16.1833 16.1029 15 17.0696 13.9833 17.0529C13.8333 17.0196 13.55 16.9696 13.3 16.8696C8.83333 14.9863 5.58333 11.8863 3.75 7.45293C3.13333 5.9696 3.78333 4.70293 5.33333 4.20293C5.61667 4.10293 5.88333 4.10293 6.16667 4.20293C6.83333 4.43626 8.51667 6.7196 8.55 7.38626C8.58333 7.90293 8.21667 8.18626 7.86667 8.4196C7.18333 8.8696 7.18333 9.43626 7.48333 10.0863C8.13333 11.5196 9.25 12.5196 10.7 13.1529C11.2167 13.3863 11.7333 13.3696 12.0833 12.8363C12.7167 11.8863 13.5 11.9363 14.35 12.5196C14.7833 12.8196 15.2167 13.1029 15.6167 13.4196C16.1667 13.8696 16.8667 14.2363 16.5333 15.1529Z"
                fill="white" />
            </svg>