  <svg class="icon-playlist" width="44" height="44" viewBox="0 0 44 44" fill="none" xmlns="http://www.w3.org/2000/svg">
    <g clip-path="url(#clipr0)">
      <path
        d="M22 0C26.3512 0 30.6047 1.29028 34.2225 3.70767C37.8404 6.12506 40.6602 9.56099 42.3253 13.581C43.9905 17.6009 44.4261 22.0244 43.5773 26.292C42.7284 30.5596 40.6331 34.4796 37.5563 37.5564C34.4796 40.6331 30.5596 42.7284 26.292 43.5773C22.0244 44.4262 17.6009 43.9905 13.581 42.3253C9.56098 40.6602 6.12505 37.8404 3.70766 34.2225C1.29027 30.6047 -1.14441e-05 26.3512 -1.14441e-05 22C0.00654221 16.1672 2.32649 10.5753 6.45087 6.45089C10.5753 2.32651 16.1672 0.0065508 22 0V0ZM22 42.7969C26.1132 42.7969 30.1341 41.5772 33.5541 39.292C36.9741 37.0068 39.6397 33.7588 41.2138 29.9586C42.7879 26.1585 43.1997 21.9769 42.3973 17.9427C41.5948 13.9085 39.6141 10.2029 36.7056 7.29439C33.7971 4.38589 30.0915 2.40518 26.0573 1.60273C22.0231 0.800279 17.8415 1.21213 14.0414 2.78619C10.2412 4.36026 6.99321 7.02585 4.70802 10.4459C2.42283 13.8659 1.20311 17.8868 1.20311 22C1.20939 27.5137 3.4025 32.7999 7.30131 36.6987C11.2001 40.5975 16.4862 42.7906 22 42.7969ZM3.43749 22C3.43749 26.9231 5.39317 31.6445 8.87432 35.1257C12.3555 38.6068 17.0769 40.5625 22 40.5625C26.9231 40.5625 31.6445 38.6068 35.1257 35.1257C38.6068 31.6445 40.5625 26.9231 40.5625 22C40.5625 21.8405 40.4991 21.6874 40.3863 21.5746C40.2735 21.4618 40.1205 21.3984 39.9609 21.3984C39.8014 21.3984 39.6484 21.4618 39.5356 21.5746C39.4227 21.6874 39.3594 21.8405 39.3594 22C39.3637 26.0374 37.9623 29.9503 35.3958 33.0669C32.8292 36.1835 29.2576 38.3093 25.2943 39.0792C21.331 39.8492 17.2233 39.2152 13.6766 37.2862C10.1298 35.3572 7.3653 32.2536 5.85775 28.5082C4.35022 24.7628 4.1937 20.6095 5.4151 16.7612C6.63649 12.913 9.15958 9.61014 12.5511 7.4197C15.9426 5.22926 19.991 4.28796 24.001 4.75744C28.011 5.22691 31.7324 7.07787 34.5262 9.99247C34.5805 10.051 34.6459 10.0981 34.7186 10.1311C34.7913 10.164 34.8698 10.1822 34.9496 10.1846C35.0294 10.1869 35.1089 10.1733 35.1834 10.1446C35.2579 10.1159 35.3259 10.0727 35.3835 10.0175C35.4411 9.96222 35.4872 9.89606 35.519 9.82284C35.5507 9.74963 35.5677 9.67081 35.5687 9.591C35.5697 9.51118 35.5548 9.43196 35.5249 9.35795C35.4951 9.28394 35.4507 9.21662 35.3946 9.15991C32.8325 6.4836 29.5279 4.6356 25.9063 3.85393C22.2848 3.07225 18.5121 3.3927 15.0743 4.77399C11.6364 6.15529 8.69085 8.53418 6.61689 11.6043C4.54294 14.6744 3.4356 18.295 3.43749 22ZM39.6863 16.3584C39.4696 15.6802 39.2138 15.0152 38.9201 14.3667C38.8874 14.2947 38.841 14.2299 38.7833 14.1759C38.7256 14.1219 38.6579 14.0798 38.5839 14.052C38.51 14.0242 38.4313 14.0112 38.3523 14.0138C38.2734 14.0164 38.1957 14.0345 38.1238 14.0671C38.0518 14.0997 37.987 14.1462 37.933 14.2039C37.879 14.2615 37.8369 14.3293 37.809 14.4032C37.7812 14.4772 37.7682 14.5559 37.7708 14.6348C37.7734 14.7138 37.7916 14.7914 37.8242 14.8634C38.0985 15.4693 38.3376 16.0906 38.5402 16.7241C38.5634 16.8004 38.6015 16.8713 38.6523 16.9327C38.7031 16.9941 38.7656 17.0448 38.8362 17.0818C38.9067 17.1189 38.984 17.1415 39.0634 17.1485C39.1428 17.1554 39.2227 17.1465 39.2987 17.1223C39.3746 17.098 39.4449 17.059 39.5056 17.0073C39.5663 16.9557 39.6162 16.8925 39.6522 16.8214C39.6883 16.7503 39.7099 16.6728 39.7157 16.5933C39.7216 16.5138 39.7116 16.434 39.6863 16.3584ZM25.0295 13.3633H18.9709C18.3555 13.3633 17.7653 13.1188 17.3302 12.6837C16.895 12.2485 16.6506 11.6584 16.6506 11.043C16.6506 10.4276 16.895 9.8374 17.3302 9.40226C17.7653 8.96712 18.3555 8.72266 18.9709 8.72266H25.0295C25.6448 8.72266 26.235 8.96712 26.6702 9.40226C27.1053 9.8374 27.3498 10.4276 27.3498 11.043C27.3498 11.6584 27.1053 12.2485 26.6702 12.6837C26.235 13.1188 25.6448 13.3633 25.0295 13.3633ZM25.0295 9.92578H18.9709C18.6746 9.92578 18.3904 10.0435 18.1809 10.253C17.9714 10.4625 17.8537 10.7467 17.8537 11.043C17.8537 11.3393 17.9714 11.6234 18.1809 11.8329C18.3904 12.0425 18.6746 12.1602 18.9709 12.1602H25.0295C25.3258 12.1602 25.6099 12.0425 25.8194 11.8329C26.0289 11.6234 26.1466 11.3393 26.1466 11.043C26.1466 10.7467 26.0289 10.4625 25.8194 10.253C25.6099 10.0435 25.3258 9.92578 25.0295 9.92578ZM24.3203 30.6367V20.2438H25.0295C25.6448 20.2438 26.235 19.9993 26.6702 19.5642C27.1053 19.129 27.3498 18.5389 27.3498 17.9235C27.3498 17.3081 27.1053 16.7179 26.6702 16.2828C26.235 15.8476 25.6448 15.6032 25.0295 15.6032H18.9709C18.3555 15.6032 17.7653 15.8476 17.3302 16.2828C16.895 16.7179 16.6506 17.3081 16.6506 17.9235C16.6506 18.5389 16.895 19.129 17.3302 19.5642C17.7653 19.9993 18.3555 20.2438 18.9709 20.2438H19.6797V30.6367H18.9709C18.8113 30.6367 18.6583 30.7001 18.5455 30.8129C18.4327 30.9257 18.3693 31.0787 18.3693 31.2383C18.3693 31.3978 18.4327 31.5508 18.5455 31.6636C18.6583 31.7765 18.8113 31.8398 18.9709 31.8398H20.2812C20.3603 31.8399 20.4385 31.8244 20.5115 31.7941C20.5845 31.7639 20.6508 31.7196 20.7067 31.6638C20.7626 31.6079 20.8069 31.5415 20.8371 31.4685C20.8673 31.3955 20.8828 31.3173 20.8828 31.2383V19.6422C20.8828 19.5632 20.8673 19.485 20.8371 19.412C20.8069 19.339 20.7626 19.2726 20.7067 19.2167C20.6508 19.1609 20.5845 19.1166 20.5115 19.0864C20.4385 19.0561 20.3603 19.0406 20.2812 19.0407H18.9709C18.6746 19.0407 18.3904 18.923 18.1809 18.7134C17.9714 18.5039 17.8537 18.2198 17.8537 17.9235C17.8537 17.6272 17.9714 17.343 18.1809 17.1335C18.3904 16.924 18.6746 16.8063 18.9709 16.8063H25.0295C25.3258 16.8063 25.6099 16.924 25.8194 17.1335C26.0289 17.343 26.1466 17.6272 26.1466 17.9235C26.1466 18.2198 26.0289 18.5039 25.8194 18.7134C25.6099 18.923 25.3258 19.0407 25.0295 19.0407H23.7187C23.5592 19.0407 23.4062 19.104 23.2934 19.2169C23.1806 19.3297 23.1172 19.4827 23.1172 19.6422V31.2383C23.1172 31.3978 23.1806 31.5508 23.2934 31.6636C23.4062 31.7765 23.5592 31.8398 23.7187 31.8398H25.0295C25.3258 31.8398 25.6099 31.9575 25.8194 32.1671C26.0289 32.3766 26.1466 32.6607 26.1466 32.957C26.1466 33.2533 26.0289 33.5375 25.8194 33.747C25.6099 33.9565 25.3258 34.0742 25.0295 34.0742H18.9709C18.8113 34.0742 18.6583 34.1376 18.5455 34.2504C18.4327 34.3632 18.3693 34.5162 18.3693 34.6758C18.3693 34.8353 18.4327 34.9883 18.5455 35.1012C18.6583 35.214 18.8113 35.2773 18.9709 35.2773H25.0295C25.6448 35.2773 26.235 35.0329 26.6702 34.5977C27.1053 34.1626 27.3498 33.5724 27.3498 32.957C27.3498 32.3416 27.1053 31.7515 26.6702 31.3163C26.235 30.8812 25.6448 30.6367 25.0295 30.6367H24.3203Z"
        fill="url(#paintr0_linear)" />
    </g>
    <defs>
      <linearGradient id="paintr0_linear" x1="22" y1="0" x2="22" y2="44" gradientUnits="userSpaceOnUse">
        <stop stop-color="#41AFC1" />
        <stop offset="1" stop-color="#D0E6EB" />
      </linearGradient>
      <clipPath id="clipr0">
        <rect width="44" height="44" fill="white" transform="matrix(-1 0 0 1 44 0)" />
      </clipPath>
    </defs>
  </svg>