 <svg class="time-svg" width="54" height="90" viewBox="0 0 54 90" fill="none"
            xmlns="http://www.w3.org/2000/svg">
            <path
              d="M27 56.7773C27.9702 56.7773 28.7578 55.9898 28.7578 55.0195C28.7578 54.0493 27.9702 53.2617 27 53.2617C26.0298 53.2617 25.2422 54.0493 25.2422 55.0195C25.2422 55.9898 26.0298 56.7773 27 56.7773Z"
              fill="url(#paintte0_linear)" />
            <path
              d="M36.6124 43.4599C40.691 40.9818 44.0673 37.4936 46.3771 33.3717C48.6499 29.3156 49.8516 24.7261 49.8516 20.0988V10.2448C51.8978 9.51897 53.3672 7.56477 53.3672 5.27344V1.75781C53.3672 0.786896 52.5803 0 51.6094 0H2.39062C1.41971 0 0.632812 0.786896 0.632812 1.75781V5.27344C0.632812 7.56477 2.10223 9.51897 4.14844 10.2448V20.0988C4.14844 24.7261 5.35007 29.3156 7.62286 33.3717C9.93274 37.4936 13.3097 40.9824 17.3883 43.4599C17.9095 43.7764 18.2212 44.3525 18.2212 45C18.2212 45.6482 17.9095 46.2236 17.3883 46.5408C13.3097 49.0182 9.93274 52.5064 7.62286 56.6283C5.35007 60.6844 4.14844 65.2739 4.14844 69.9012V79.7552C2.10223 80.481 0.632812 82.4352 0.632812 84.7266V88.2422C0.632812 89.2131 1.41971 90 2.39062 90H51.6094C52.5803 90 53.3672 89.2131 53.3672 88.2422V84.7266C53.3672 82.4352 51.8978 80.481 49.8516 79.7552V69.9012C49.8516 65.2739 48.6499 60.6844 46.3771 56.6283C44.0673 52.5064 40.6903 49.0176 36.6117 46.5401C36.0905 46.2236 35.7788 45.6475 35.7788 45C35.7788 44.3518 36.0905 43.7764 36.6124 43.4599ZM4.14844 3.51562H49.8516V5.27344C49.8516 6.24298 49.0633 7.03125 48.0938 7.03125H5.90625C4.93671 7.03125 4.14844 6.24298 4.14844 5.27344V3.51562ZM49.8516 86.4844H4.14844V84.7266C4.14844 83.757 4.93671 82.9688 5.90625 82.9688H48.0938C49.0633 82.9688 49.8516 83.757 49.8516 84.7266V86.4844ZM34.7872 49.5449C42.0183 53.9381 46.3359 61.5482 46.3359 69.9012V79.4531H7.66406V69.9012C7.66406 61.5482 11.9817 53.9381 19.2128 49.5449C20.7934 48.5857 21.7369 46.8862 21.7369 45C21.7369 43.1138 20.7934 41.4143 19.2128 40.4551C11.9817 36.0619 7.66406 28.4518 7.66406 20.0988V10.5469H46.3359V20.0988C46.3359 28.4518 42.0183 36.0619 34.7872 40.4551C33.2066 41.4143 32.2631 43.1138 32.2631 45C32.2631 46.8862 33.2066 48.5857 34.7872 49.5449Z"
              fill="url(#paintte1_linear)" />
            <path
              d="M28.4008 60.9014C28.0691 60.4592 27.5486 60.1982 26.9959 60.1982C26.9959 60.1982 26.9952 60.1982 26.9945 60.1982C26.4424 60.1982 25.922 60.4578 25.5903 60.8986C24.9277 61.7803 24.1024 62.5294 23.1376 63.1275C21.1244 64.3401 19.326 65.0981 17.7385 65.7676C14.2188 67.2522 11.1797 68.5341 11.1797 73.4066V74.1797C11.1797 75.1506 11.9666 75.9375 12.9375 75.9375H41.0625C42.0334 75.9375 42.8203 75.1506 42.8203 74.1797V73.4066C42.8203 68.5369 39.7737 67.2494 36.2464 65.758C34.6458 65.081 32.8317 64.3147 30.793 63.0876C29.8585 62.5074 29.0538 61.7713 28.4008 60.9014ZM39.2353 72.4219H14.764C15.0318 70.7973 16.1393 70.2576 19.1049 69.0072C20.7193 68.3261 22.7277 67.4794 24.9613 66.1336C24.9668 66.1295 24.973 66.1261 24.9785 66.1226C25.7077 65.6715 26.3813 65.1558 26.9931 64.5811C27.5898 65.1421 28.2435 65.6433 28.9501 66.0814C28.9563 66.0849 28.9624 66.089 28.9686 66.0924C31.2263 67.452 33.2505 68.3082 34.8772 68.9962C37.8552 70.2549 38.9669 70.7973 39.2353 72.4219Z"
              fill="url(#paintte2_linear)" />
            <path
              d="M42.8203 20.109V16.8749C42.8203 16.2357 42.4736 15.6472 41.9146 15.3375C41.3557 15.0272 40.6732 15.0457 40.1307 15.3842C36.1894 17.8479 31.6493 19.1498 27 19.1498C22.3514 19.1498 17.8106 17.8479 13.8693 15.3842C13.3268 15.0457 12.6443 15.0279 12.0854 15.3375C11.5264 15.6472 11.1797 16.2357 11.1797 16.8749V20.109C11.1797 23.1495 12.3539 26.4221 14.5745 29.5724C16.7264 32.6252 19.7113 35.3519 23.207 37.4592C23.917 37.9007 24.6125 38.5269 25.2422 39.2836V47.9882C25.2422 48.9592 26.0291 49.746 27 49.746C27.9702 49.746 28.7578 48.9592 28.7578 47.9882V39.2871C29.3991 38.5215 30.1181 37.8808 30.8624 37.4194C38.0152 33.1052 42.8203 26.1502 42.8203 20.109ZM29.0387 34.4132C29.0332 34.4174 29.027 34.4201 29.0215 34.4242C28.3204 34.8575 27.6413 35.3938 27.0062 36.0104C26.3903 35.4075 25.7359 34.8905 25.0499 34.4654C25.0437 34.4613 25.0376 34.4579 25.0314 34.4538C18.8488 30.7301 14.6953 24.9657 14.6953 20.109V19.8502C18.5206 21.6986 22.7201 22.6654 27 22.6654C31.2799 22.6654 35.4794 21.6986 39.3047 19.8502V20.109C39.3047 24.8895 35.0832 30.7713 29.0387 34.4132Z"
              fill="url(#paintte3_linear)" />
            <defs>
              <linearGradient id="paintte0_linear" x1="27" y1="53.2617" x2="27" y2="56.7773"
                gradientUnits="userSpaceOnUse">
                <stop stop-color="#41AFC1" />
                <stop offset="1" stop-color="#D0E6EB" />
              </linearGradient>
              <linearGradient id="paintte1_linear" x1="27" y1="0" x2="27" y2="90" gradientUnits="userSpaceOnUse">
                <stop stop-color="#41AFC1" />
                <stop offset="1" stop-color="#D0E6EB" />
              </linearGradient>
              <linearGradient id="paintte2_linear" x1="27" y1="60.1982" x2="27" y2="75.9375"
                gradientUnits="userSpaceOnUse">
                <stop stop-color="#41AFC1" />
                <stop offset="1" stop-color="#D0E6EB" />
              </linearGradient>
              <linearGradient id="paintte3_linear" x1="27" y1="15.1169" x2="27" y2="49.746"
                gradientUnits="userSpaceOnUse">
                <stop stop-color="#41AFC1" />
                <stop offset="1" stop-color="#D0E6EB" />
              </linearGradient>
            </defs>
          </svg>