 <svg width="76" height="90" viewBox="0 0 76 90" fill="none" xmlns="http://www.w3.org/2000/svg">
            <path
              d="M68.8086 60.383C68.7905 60.4011 68.7721 60.4183 68.754 60.4364L65.6407 57.3231C71.7417 51.2427 75.523 42.836 75.523 33.5623C75.523 15.0558 60.4671 0 41.9607 0C32.7167 0 24.3339 3.75662 18.2582 9.82336L15.1171 6.68232C15.799 5.99555 15.7978 4.88602 15.1127 4.20117C14.4263 3.51475 13.3131 3.51475 12.6268 4.20117C5.69983 11.1282 1.43608 20.3113 0.621335 30.0593C-0.183919 39.6921 2.40042 49.34 7.89833 57.2261C8.24005 57.7162 8.78638 57.9788 9.34184 57.9788C9.68884 57.9788 10.0393 57.8763 10.3456 57.6628C11.1418 57.1075 11.3375 56.0118 10.7822 55.2155C0.936688 41.0936 1.9012 22.3131 12.7451 9.2823L15.9009 12.4381C11.2127 18.2106 8.39843 25.5633 8.39843 33.5621C8.39843 52.0683 23.4543 67.1244 41.9607 67.1244C49.9296 67.1244 57.2572 64.3308 63.0198 59.6742L66.1477 62.8021C53.2777 73.4467 34.7071 74.5029 20.6794 64.9881C19.8759 64.4428 18.7829 64.6527 18.238 65.4562C17.693 66.2595 17.9026 67.3527 18.7061 67.8976C25.2567 72.3408 32.713 74.6735 40.2029 74.9821V79.4531H33.8748C29.0285 79.4531 25.0857 83.3959 25.0857 88.2422C25.0857 89.213 25.8727 90 26.8435 90H57.0779C58.0487 90 58.8357 89.213 58.8357 88.2422C58.8357 83.3959 54.8929 79.4531 50.0466 79.4531H43.7185V74.9779C53.8164 74.5414 63.7259 70.4377 71.2945 62.869C71.981 62.1826 71.981 61.0696 71.2945 60.383C70.6081 59.6967 69.4951 59.6967 68.8086 60.383ZM41.4588 8.13428L45.0175 3.67031C57.3925 4.92609 67.5717 13.7232 70.8748 25.3804L70.4555 25.7542C70.0616 26.1056 69.747 26.5312 69.5253 27.0005L69.1729 26.0313C69.021 25.6136 68.7974 25.2304 68.5086 24.8922L66.922 23.0347C66.2175 22.21 65.1914 21.7369 64.1068 21.7369H62.1646C61.3017 21.7369 60.5126 22.2096 60.1055 22.9706C59.7092 23.7115 59.7408 24.602 60.1848 25.3111C59.1546 26.1443 58.0002 26.8309 56.7776 27.3354L54.3643 22.7127V21.6904C54.3643 21.2101 54.1678 20.7506 53.8203 20.4189L51.4228 18.1301C51.2423 17.9578 51.0273 17.826 50.7918 17.7432L43.8312 15.2972C43.644 15.2314 43.4467 15.1979 43.2485 15.1979H37.1932C35.2137 15.1979 33.3831 16.1278 32.2036 17.6344L30.8199 15.696L32.5304 11.5495L40.6659 8.6973C40.9779 8.58779 41.2526 8.39268 41.4588 8.13428ZM50.2231 45.2044C50.6144 46.4672 50.6144 46.4672 50.0839 47.0445C49.9906 47.1459 49.9037 47.2386 49.8223 47.3251C49.2126 47.9742 48.6859 48.5348 48.2651 49.8604C48.1825 50.1205 48.0886 50.2265 47.8372 50.5093C47.611 50.764 47.3296 51.081 47.0624 51.5385C46.7307 52.1063 46.621 52.6526 46.541 53.0517C46.469 53.4106 46.4412 53.5131 46.3684 53.6024C45.7467 54.366 44.7465 55.0935 44.2337 55.2607C44.0326 54.9543 43.6331 54.2174 43.0853 52.5913C42.8922 52.0181 42.6301 51.4404 42.3764 50.8818C41.8886 49.8074 41.3358 48.5896 41.5557 47.9088L41.6515 47.6153C42.0996 46.2495 42.5629 44.8372 41.7248 42.8291C41.4588 42.1915 41.0385 41.7292 40.7009 41.3576C40.5662 41.2095 40.3653 40.9885 40.3133 40.889C40.2864 40.7605 40.2874 40.5875 40.2888 40.3717C40.2934 39.6628 40.3013 38.4762 39.1401 37.3892C37.5285 35.8803 35.6442 36.3465 34.5185 36.6249C34.1956 36.7049 33.8904 36.7803 33.6367 36.8102C32.0034 37.002 30.5458 36.3892 29.6398 35.1285C28.6843 33.799 28.5479 32.0055 29.2835 30.4481C29.646 29.681 30.2164 29.0392 30.8768 28.296C31.0278 28.1262 31.1802 27.9547 31.3323 27.7794C31.5993 27.4718 31.8821 27.0701 32.1818 26.6447C32.4931 26.2027 33.0683 25.3865 33.3328 25.1779C33.8284 24.9217 35.1701 24.8743 35.9769 24.8456C36.3542 24.8323 36.7115 24.8196 37.039 24.7938C37.0392 24.8825 37.046 24.9718 37.0599 25.061C37.1446 25.6064 37.4809 26.0803 37.9676 26.3408C38.1891 26.4593 38.5164 26.6774 38.8627 26.9084C39.9185 27.6121 41.1152 28.4099 42.3124 28.4862C43.5012 28.5618 44.174 27.8761 44.4274 27.6177C44.4387 27.6061 44.4498 27.5947 44.461 27.5834C44.5406 27.5168 44.618 27.4403 44.6897 27.3549C44.7959 27.3841 44.904 27.4133 45.0131 27.4428C45.6505 27.6154 46.9726 27.9733 47.2995 28.2456C47.7889 28.7728 48.2023 29.8429 48.5674 30.7879C48.7553 31.2745 48.9498 31.7774 49.1617 32.2305C49.2488 32.4163 49.3344 32.6078 49.4214 32.8017C50.0113 34.1179 50.7457 35.756 52.2901 36.7655C52.8479 37.1301 53.4934 37.296 54.0834 37.4024C53.7658 37.7425 53.3975 38.0855 53.0165 38.4404C51.4153 39.9317 49.222 41.9743 50.2231 45.2044ZM22.0788 50.4884L21.1698 55.2329C16.5438 50.793 13.3324 44.8915 12.2855 38.2788L14.9825 37.4027L20.0979 41.2921C20.312 41.4548 20.5607 41.5665 20.8248 41.618L24.0259 42.2436C24.3961 42.316 24.5888 42.561 24.6707 42.7006C24.7526 42.8402 24.8723 43.1279 24.7549 43.4865C24.4569 44.395 24.4555 45.3556 24.751 46.2649L25.159 47.5205C25.3228 48.0247 25.046 48.5678 24.5418 48.7317L23.262 49.1474C22.6527 49.3453 22.1992 49.8591 22.0788 50.4884ZM41.9605 63.6087C35.3446 63.6087 29.2225 61.4577 24.2532 57.8204L25.3357 52.1699L25.6276 52.075C27.9754 51.3125 29.2649 48.7819 28.5022 46.4342L28.0942 45.1786C28.0307 44.9833 28.0311 44.7769 28.0951 44.582C28.495 43.3628 28.3521 42.0288 27.7031 40.922C27.0541 39.8152 25.9595 39.0393 24.7 38.793L21.9 38.246L16.378 34.0472C15.9194 33.6988 15.3193 33.5969 14.7708 33.7748L11.9376 34.6952C11.9235 34.319 11.9141 33.9416 11.9141 33.5621C11.9141 17.444 24.6717 4.25109 40.6195 3.54691L39.0251 5.54678L30.6242 8.49217C30.1515 8.65793 29.7718 9.01758 29.5808 9.48076L27.1989 15.2548C26.9681 15.8145 27.0414 16.4537 27.3932 16.9465L31.0674 22.0936C31.1291 22.1799 31.1999 22.2569 31.2742 22.3295C30.6096 22.8145 30.0266 23.6007 29.308 24.6206C29.0719 24.9557 28.8277 25.3021 28.6773 25.4754C28.5342 25.6403 28.3909 25.8015 28.2489 25.9613C27.479 26.8276 26.6827 27.7235 26.1045 28.9471C24.8231 31.6594 25.0838 34.8144 26.7848 37.1811C28.4342 39.4761 31.1484 40.6424 34.0468 40.3024C34.5199 40.2469 34.9676 40.1361 35.3626 40.0384C36.3752 39.7879 36.5656 39.7958 36.7372 39.9565C36.7495 39.9679 36.7588 39.9776 36.7658 39.985C36.7748 40.0644 36.7737 40.2267 36.773 40.3494C36.7706 40.7037 36.7674 41.1889 36.9012 41.7396C37.1216 42.6477 37.6864 43.2691 38.0988 43.7228C38.234 43.8715 38.4382 44.0963 38.4799 44.1837C38.8 44.9506 38.7015 45.3284 38.3106 46.52L38.2097 46.8288C37.5716 48.8046 38.4605 50.7625 39.1749 52.3359C39.4024 52.8369 39.6172 53.3101 39.7534 53.7144C40.9686 57.3212 41.9385 58.1739 42.7271 58.5323C43.1722 58.7347 43.622 58.8213 44.0662 58.8212C46.6184 58.821 48.9784 55.9651 49.0942 55.8229C49.7265 55.0464 49.8837 54.2623 49.9877 53.7434C50.0225 53.57 50.0619 53.3735 50.0978 53.3122C50.1894 53.1552 50.3054 53.0248 50.4659 52.8439C50.8209 52.4442 51.3072 51.8964 51.6158 50.9244C51.795 50.3601 51.885 50.2643 52.3847 49.7324C52.4742 49.6371 52.5698 49.5353 52.6725 49.4237C54.5711 47.3579 54.0678 45.7342 53.5812 44.164C53.2793 43.1898 53.7245 42.5856 55.4127 41.0135C56.1529 40.3242 56.9183 39.6114 57.5242 38.7343C57.8132 38.3159 58.6926 37.0426 58.1143 35.7013C57.5453 34.3818 56.1624 34.1698 55.1526 34.0149C54.8558 33.9694 54.3615 33.8936 54.2033 33.8161C53.5274 33.3668 53.0711 32.3487 52.6297 31.3639C52.5348 31.1523 52.4411 30.9435 52.3462 30.7408C52.1857 30.3977 52.0212 29.9719 51.8472 29.5214C51.3631 28.2683 50.8144 26.8479 49.8471 25.8228C48.9436 24.8651 47.3438 24.432 45.9323 24.0499C45.4881 23.9296 45.0687 23.8159 44.8054 23.7189C44.4819 23.5995 44.1307 23.5779 43.795 23.6565C43.0646 23.8279 42.5983 24.0247 42.236 24.3153C42.114 24.4132 41.9964 24.5326 41.8923 24.6709C41.6114 24.508 41.3027 24.3083 41.0468 24.1392C41.1011 23.6225 40.9705 23.1993 40.8373 22.9175C39.9853 21.1152 37.3204 21.2433 36.7943 21.2873C36.538 21.3087 36.2051 21.3205 35.8528 21.333C35.3475 21.3509 34.7958 21.3706 34.2399 21.4235L34.5433 20.5782C34.9435 19.463 36.0086 18.7137 37.1933 18.7137H42.9489L49.2695 20.9347L50.8491 22.4427V23.1442C50.8491 23.4276 50.9176 23.7066 51.0486 23.9578L54.3816 30.3421C54.7908 31.1259 55.7182 31.4838 56.5481 31.1778L57.5186 30.8199C59.8364 29.9653 61.985 28.5899 63.7321 26.843C64.149 26.4259 64.3181 25.8427 64.2195 25.2904C64.2302 25.2984 64.2401 25.3078 64.2489 25.3181L65.8355 27.1756C65.8501 27.1928 65.8615 27.2122 65.8691 27.2331L67.62 32.0481C67.8253 32.6127 68.3049 33.0333 68.8913 33.1634C69.0178 33.1915 69.1453 33.2051 69.272 33.2051C69.7331 33.2051 70.1817 33.0235 70.515 32.6902L71.3485 31.8565C71.5603 31.6447 71.7481 31.4128 71.9114 31.1646C71.9741 31.9558 72.0072 32.7551 72.0072 33.5621C72.0072 50.1298 58.5283 63.6087 41.9605 63.6087ZM50.0468 82.9688C52.3385 82.9688 54.2933 84.4381 55.019 86.4844H28.9026C29.6281 84.4381 31.5831 82.9688 33.8749 82.9688H50.0468Z"
              fill="url(#paint0_linnear)" />
            <path
              d="M13.8696 59.5879C12.8988 59.5879 12.1118 60.3749 12.1118 61.3457V61.6259C12.1118 62.5967 12.8988 63.3837 13.8696 63.3837C14.8405 63.3837 15.6274 62.5967 15.6274 61.6259V61.3457C15.6274 60.3749 14.8405 59.5879 13.8696 59.5879Z"
              fill="url(#paint1_linnear)" />
            <defs>
              <linearGradient id="paint0_linnear" x1="38" y1="0" x2="38" y2="90" gradientUnits="userSpaceOnUse">
                <stop stop-color="#41AFC1" />
                <stop offset="1" stop-color="#D0E6EB" />
              </linearGradient>
              <linearGradient id="paint1_linnear" x1="13.8696" y1="59.5879" x2="13.8696" y2="63.3837"
                gradientUnits="userSpaceOnUse">
                <stop stop-color="#41AFC1" />
                <stop offset="1" stop-color="#D0E6EB" />
              </linearGradient>
            </defs>
          </svg>