  <svg width="90" height="90" viewBox="0 0 90 90" fill="none" xmlns="http://www.w3.org/2000/svg">
            <path
              d="M89.485 1.39395C89.158 1.06699 88.7045 0.878906 88.2422 0.878906H52.9541C51.9838 0.878906 51.1963 1.66816 51.1963 2.63672C51.1963 3.60527 51.9838 4.39453 52.9541 4.39453H86.4844V64.8633H62.3767C62.5069 64.0025 62.5781 63.1227 62.5781 62.2266C62.5781 61.3306 62.5103 60.4501 62.3804 59.5898H74.1797C75.15 59.5898 75.9375 58.8023 75.9375 57.832V57.8074C75.9375 54.9 78.3035 52.534 81.2109 52.534C82.1813 52.534 82.9688 51.7465 82.9688 50.7762V18.457C82.9688 17.4867 82.1813 16.6992 81.2109 16.6992C78.3035 16.6992 75.9375 14.3332 75.9375 11.4258C75.9375 10.4555 75.15 9.66797 74.1797 9.66797H15.8203C14.85 9.66797 14.0625 10.4555 14.0625 11.4258C14.0625 14.3332 11.6965 16.6992 8.78906 16.6992C7.81875 16.6992 7.03125 17.4867 7.03125 18.457V50.952C7.03125 51.9223 7.81875 52.7098 8.78906 52.7098C11.7457 52.7098 14.0625 54.9492 14.0625 57.8074V57.832C14.0625 58.8023 14.85 59.5898 15.8203 59.5898H27.6196C27.4897 60.4501 27.4219 61.3306 27.4219 62.2266C27.4219 63.1225 27.4897 64.003 27.6196 64.8633H3.51562V4.39453H37.1338C38.1023 4.39453 38.8916 3.60527 38.8916 2.63672C38.8916 1.66816 38.1023 0.878906 37.1338 0.878906H1.75781C1.29551 0.878906 0.841992 1.06699 0.515039 1.39395C0.188086 1.7209 0 2.17441 0 2.63672V66.6211C0 67.0834 0.188086 67.5369 0.515039 67.8639C0.841992 68.1908 1.29551 68.3789 1.75781 68.3789H28.0028L19.183 78.8889C18.7453 79.4109 18.6486 80.1387 18.9352 80.7574C19.2217 81.3762 19.8387 81.7734 20.5207 81.777L26.4885 81.8068L27.552 87.6762C27.675 88.3477 28.1725 88.8873 28.8316 89.0631C28.9811 89.1018 29.1322 89.1211 29.2816 89.1211C29.7949 89.1211 30.2906 88.8979 30.6281 88.4936L38.851 78.6939C40.766 79.4113 42.8377 79.8047 45 79.8047C47.1621 79.8047 49.2346 79.4127 51.1488 78.6937L59.3719 88.4936C59.7094 88.8979 60.2051 89.1211 60.7184 89.1211C60.8678 89.1211 61.0189 89.1018 61.1684 89.0631C61.8275 88.8873 62.325 88.3477 62.448 87.6762L63.5115 81.8068L69.4793 81.777C70.1613 81.7734 70.7783 81.3762 71.0648 80.7574C71.3514 80.1387 71.2547 79.4109 70.817 78.8889L61.9972 68.3789H88.2422C88.7045 68.3789 89.158 68.1908 89.485 67.8639C89.8119 67.5369 90 67.0834 90 66.6211V2.63672C90 2.17441 89.8119 1.7209 89.485 1.39395ZM17.4076 56.0742C16.7221 52.657 14.0344 50.0273 10.5469 49.3594V20.0391C13.9852 19.3377 16.701 16.6219 17.4023 13.1836H72.5977C73.299 16.6219 76.0148 19.3377 79.4531 20.0391V49.1941C76.0061 49.8973 73.2867 52.6236 72.5941 56.0742H61.4661C58.9669 49.407 52.5291 44.6484 45 44.6484C37.4788 44.6484 31.0468 49.3972 28.542 56.0533L17.4076 56.0742ZM30.3434 83.3643L29.6859 79.7414C29.5348 78.9082 28.8123 78.3018 27.965 78.2982L24.2842 78.2789L30.0303 71.4306C31.438 73.7116 33.3517 75.6482 35.6142 77.0827L30.3434 83.3643ZM45 76.2891C37.2463 76.2891 30.9375 69.9803 30.9375 62.2266C30.9375 54.4729 37.2463 48.1641 45 48.1641C52.7537 48.1641 59.0625 54.4729 59.0625 62.2266C59.0625 63.0475 58.9922 63.8525 58.8551 64.6348C58.616 66.0217 58.1713 67.3383 57.5561 68.5547C56.3326 70.9734 54.4307 72.9932 52.1016 74.3607C51.0504 74.9777 49.9131 75.4629 48.7125 75.7916C47.5295 76.1168 46.285 76.2891 45 76.2891ZM62.035 78.2982C61.1877 78.3018 60.4652 78.9082 60.3141 79.7414L59.6566 83.3643L54.385 77.0818C56.649 75.6492 58.5633 73.7121 59.9695 71.4305L65.7158 78.2789L62.035 78.2982Z"
              fill="url(#paintt0_linear)" />
            <path
              d="M45.0439 4.39453C46.0148 4.39453 46.8018 3.60753 46.8018 2.63672C46.8018 1.66591 46.0148 0.878906 45.0439 0.878906C44.0731 0.878906 43.2861 1.66591 43.2861 2.63672C43.2861 3.60753 44.0731 4.39453 45.0439 4.39453Z"
              fill="url(#paintt1_linear)" />
            <path
              d="M25.5762 46.9336H19.248C18.2772 46.9336 17.4902 47.7206 17.4902 48.6914C17.4902 49.6622 18.2772 50.4492 19.248 50.4492H25.5762C26.547 50.4492 27.334 49.6622 27.334 48.6914C27.334 47.7206 26.547 46.9336 25.5762 46.9336Z"
              fill="url(#paintt2_linear)" />
            <path
              d="M70.752 46.9336H64.4238C63.453 46.9336 62.666 47.7206 62.666 48.6914C62.666 49.6622 63.453 50.4492 64.4238 50.4492H70.752C71.7228 50.4492 72.5098 49.6622 72.5098 48.6914C72.5098 47.7206 71.7228 46.9336 70.752 46.9336Z"
              fill="url(#paintt3_linear)" />
            <path
              d="M75.7617 41.6602C75.7617 40.6893 74.9747 39.9023 74.0039 39.9023H15.9961C15.0253 39.9023 14.2383 40.6893 14.2383 41.6602C14.2383 42.631 15.0253 43.418 15.9961 43.418H74.0039C74.9747 43.418 75.7617 42.631 75.7617 41.6602Z"
              fill="url(#paintt4_linear)" />
            <path
              d="M15.9961 36.3867H74.0039C74.9747 36.3867 75.7617 35.5997 75.7617 34.6289C75.7617 33.6581 74.9747 32.8711 74.0039 32.8711H15.9961C15.0253 32.8711 14.2383 33.6581 14.2383 34.6289C14.2383 35.5997 15.0253 36.3867 15.9961 36.3867Z"
              fill="url(#paintt5_linear)" />
            <path
              d="M47.2852 27.5977C47.2852 28.5685 48.0721 29.3555 49.043 29.3555H70.4883C71.4591 29.3555 72.2461 28.5685 72.2461 27.5977C72.2461 26.6268 71.4591 25.8398 70.4883 25.8398H49.043C48.0721 25.8398 47.2852 26.6268 47.2852 27.5977Z"
              fill="url(#paintt6_linear)" />
            <path
              d="M19.5117 29.3555H41.1328C42.1037 29.3555 42.8906 28.5685 42.8906 27.5977C42.8906 26.6268 42.1037 25.8398 41.1328 25.8398H19.5117C18.5409 25.8398 17.7539 26.6268 17.7539 27.5977C17.7539 28.5685 18.5409 29.3555 19.5117 29.3555Z"
              fill="url(#paintt7_linear)" />
            <path
              d="M29.1797 22.3242H60.8203C61.7912 22.3242 62.5781 21.5372 62.5781 20.5664C62.5781 19.5956 61.7912 18.8086 60.8203 18.8086H29.1797C28.2088 18.8086 27.4219 19.5956 27.4219 20.5664C27.4219 21.5372 28.2088 22.3242 29.1797 22.3242Z"
              fill="url(#paintt8_linear)" />
            <path
              d="M55.5469 62.2266C55.5469 56.411 50.8155 51.6797 45 51.6797C39.1845 51.6797 34.4531 56.411 34.4531 62.2266C34.4531 68.0421 39.1845 72.7734 45 72.7734C50.8155 72.7734 55.5469 68.0421 55.5469 62.2266ZM45 69.2578C41.123 69.2578 37.9688 66.1036 37.9688 62.2266C37.9688 58.3495 41.123 55.1953 45 55.1953C48.877 55.1953 52.0312 58.3495 52.0312 62.2266C52.0312 66.1036 48.877 69.2578 45 69.2578Z"
              fill="url(#paintt9_linear)" />
            <defs>
              <linearGradient id="paintt0_linear" x1="45" y1="0.878906" x2="45" y2="89.1211"
                gradientUnits="userSpaceOnUse">
                <stop stop-color="#41AFC1" />
                <stop offset="1" stop-color="#D0E6EB" />
              </linearGradient>
              <linearGradient id="paintt1_linear" x1="45.0439" y1="0.878906" x2="45.0439" y2="4.39453"
                gradientUnits="userSpaceOnUse">
                <stop stop-color="#41AFC1" />
                <stop offset="1" stop-color="#D0E6EB" />
              </linearGradient>
              <linearGradient id="paintt2_linear" x1="22.4121" y1="46.9336" x2="22.4121" y2="50.4492"
                gradientUnits="userSpaceOnUse">
                <stop stop-color="#41AFC1" />
                <stop offset="1" stop-color="#D0E6EB" />
              </linearGradient>
              <linearGradient id="paintt3_linear" x1="67.5879" y1="46.9336" x2="67.5879" y2="50.4492"
                gradientUnits="userSpaceOnUse">
                <stop stop-color="#41AFC1" />
                <stop offset="1" stop-color="#D0E6EB" />
              </linearGradient>
              <linearGradient id="paintt4_linear" x1="45" y1="39.9023" x2="45" y2="43.418"
                gradientUnits="userSpaceOnUse">
                <stop stop-color="#41AFC1" />
                <stop offset="1" stop-color="#D0E6EB" />
              </linearGradient>
              <linearGradient id="paintt5_linear" x1="45" y1="32.8711" x2="45" y2="36.3867"
                gradientUnits="userSpaceOnUse">
                <stop stop-color="#41AFC1" />
                <stop offset="1" stop-color="#D0E6EB" />
              </linearGradient>
              <linearGradient id="paintt6_linear" x1="59.7656" y1="25.8398" x2="59.7656" y2="29.3555"
                gradientUnits="userSpaceOnUse">
                <stop stop-color="#41AFC1" />
                <stop offset="1" stop-color="#D0E6EB" />
              </linearGradient>
              <linearGradient id="paintt7_linear" x1="30.3223" y1="25.8398" x2="30.3223" y2="29.3555"
                gradientUnits="userSpaceOnUse">
                <stop stop-color="#41AFC1" />
                <stop offset="1" stop-color="#D0E6EB" />
              </linearGradient>
              <linearGradient id="paintt8_linear" x1="45" y1="18.8086" x2="45" y2="22.3242"
                gradientUnits="userSpaceOnUse">
                <stop stop-color="#41AFC1" />
                <stop offset="1" stop-color="#D0E6EB" />
              </linearGradient>
              <linearGradient id="paintt9_linear" x1="45" y1="51.6797" x2="45" y2="72.7734"
                gradientUnits="userSpaceOnUse">
                <stop stop-color="#41AFC1" />
                <stop offset="1" stop-color="#D0E6EB" />
              </linearGradient>
            </defs>
          </svg>