  <svg width="90" height="86" viewBox="0 0 90 86" fill="none" xmlns="http://www.w3.org/2000/svg">
            <path
              d="M20.993 85.108C20.2686 85.108 19.6038 84.6482 19.3477 83.9703C19.0858 83.2765 19.3009 82.4611 19.8768 81.9919C20.4553 81.5207 21.2851 81.467 21.9199 81.8585C22.5176 82.2273 22.8431 82.945 22.7264 83.6376C22.5849 84.4747 21.8436 85.108 20.993 85.108Z"
              fill="url(#painet0_linear)" />
            <path
              d="M88.2283 57.3934C86.8674 56.0325 85.0581 55.283 83.1337 55.283C82.2971 55.283 81.4822 55.4246 80.7167 55.6966C80.546 55.5429 80.3767 55.3923 80.3119 55.3392C77.4382 52.9888 73.2898 53.1975 70.6622 55.8249L62.3587 64.1286C61.6642 64.8225 58.8301 66.4522 58.0057 66.5554H52.9369C52.048 66.5554 51.6985 65.8783 51.6126 65.6707C51.5398 65.4949 51.3626 64.9479 51.6912 64.4026L55.7058 63.2398C57.8763 62.6111 59.5517 60.9369 60.1875 58.7613C60.8105 56.6293 60.3151 54.3677 58.8607 52.7104C58.7929 52.6332 58.7233 52.5566 58.6517 52.481C57.4866 51.2507 55.3425 51.1226 51.2521 52.0384C48.37 52.6837 45.0398 53.7616 42.7536 54.5522C37.7901 56.2689 33.9405 60.087 32.2328 64.9094H30.4478V63.5307C30.4478 62.5599 29.6608 61.7729 28.69 61.7729H1.7578C0.786968 61.7729 0 62.5599 0 63.5307V83.3501C0 84.321 0.786968 85.1079 1.7578 85.1079H13.0141C13.9849 85.1079 14.7719 84.321 14.7719 83.3501C14.7719 82.3793 13.9849 81.5923 13.0141 81.5923H3.5156V65.2885H26.9318V83.3501C26.9318 84.321 27.7188 85.1079 28.6896 85.1079C29.6605 85.1079 30.4474 84.321 30.4474 83.3501V81.9715H35.7011C40.87 83.7342 46.2098 84.6221 51.6221 84.6221C52.81 84.6219 54.002 84.5792 55.1957 84.4936C61.9017 84.0123 68.3196 82.2028 74.271 79.1154C75.6966 78.3759 76.2093 78.0219 76.5076 77.7338L87.397 67.6264C87.413 67.6117 87.4287 67.5965 87.444 67.5812C88.7776 66.2483 89.6834 64.4808 89.9295 62.7322C90.2185 60.6759 89.6145 58.7797 88.2283 57.3934ZM73.1479 58.3109C74.3701 57.0886 76.2348 56.8882 77.6683 57.7643L69.735 65.6974C69.1818 66.2508 68.446 66.5556 67.6636 66.5556H64.9033L73.1479 58.3109ZM74.052 75.2184C74.0594 75.211 74.0675 75.2027 74.0766 75.1943C74.0683 75.2024 74.0601 75.2103 74.052 75.2184ZM86.448 62.243C86.3074 63.2423 85.7728 64.2724 84.9797 65.0737L74.0989 75.1732C74.0972 75.1748 74.0956 75.1762 74.0942 75.1778C74.0268 75.2277 73.7108 75.4462 72.6523 75.9953C61.6147 81.721 48.5064 82.6681 36.6901 78.5948L36.5681 78.5526C36.3837 78.4889 36.1902 78.4566 35.995 78.4566H30.4474V68.4257H33.5281C34.326 68.4257 35.0239 67.8883 35.2276 67.1168C36.3638 62.8158 39.6068 59.3611 43.9023 57.8754C53.2992 54.6257 55.7712 54.9115 56.2059 55.0159C56.2101 55.0209 56.2147 55.026 56.2189 55.0309C56.8842 55.789 57.1008 56.7896 56.8125 57.7755C56.5158 58.7905 55.7364 59.5709 54.7272 59.8633L50.1911 61.177C49.9063 61.2597 49.6468 61.4128 49.4371 61.6226C47.9947 63.0653 47.5835 65.1319 48.3642 67.0165C49.1446 68.9008 50.8968 70.0713 52.9366 70.0713H67.6636C69.3852 70.0713 71.0036 69.4009 72.2211 68.1836L80.5253 59.8794C81.2221 59.1826 82.1483 58.7989 83.1337 58.7989C84.1189 58.7989 85.0456 59.1828 85.7424 59.8794C86.3462 60.4832 86.5835 61.2785 86.448 62.243Z"
              fill="url(#painet1_linear)" />
            <path
              d="M68.4306 22.7979C68.3445 22.7674 68.2603 22.7376 68.1779 22.7082V19.9254C68.2035 19.9523 68.226 19.9794 68.2448 20.0061C68.8026 20.8008 69.8989 20.9929 70.6935 20.4352C71.4882 19.8776 71.6803 18.7813 71.1225 17.9865C70.5275 17.1386 69.5001 16.4158 68.1707 16.1004C68.0905 15.2037 67.3373 14.501 66.42 14.501C65.4641 14.501 64.6863 15.264 64.6628 16.2145C64.5928 16.2337 64.5223 16.2539 64.4517 16.2751C62.6916 16.8055 61.3634 18.5086 61.2218 20.4171C61.0809 22.3174 62.0849 23.9649 63.9078 24.8244C64.0911 24.9109 64.3464 25.0197 64.6622 25.1466V28.8268C64.3836 28.6797 64.143 28.4967 63.9658 28.2766C63.3569 27.5204 62.2498 27.4014 61.4941 28.0103C60.7379 28.6192 60.6189 29.7259 61.2277 30.482C62.1247 31.5955 63.4001 32.2387 64.6781 32.5562C64.7941 33.4147 65.5297 34.0765 66.4199 34.0765C67.2664 34.0765 67.9733 33.478 68.1402 32.6808C70.4447 32.2384 72.0577 30.6811 72.3259 28.5696C72.6406 26.0932 71.0387 23.7198 68.4306 22.7979ZM68.8384 28.1268C68.7836 28.5593 68.5111 28.8321 68.1779 29.0038V26.642C68.6815 27.088 68.898 27.6582 68.8384 28.1268Z"
              fill="url(#painet2_linear)" />
            <path
              d="M66.6016 39.8601C58.0154 39.8601 51.0303 32.8748 51.0303 24.2888C51.0303 15.7026 58.0154 8.71729 66.6016 8.71729C75.1877 8.71729 82.1731 15.7026 82.1731 24.2888C82.1731 32.8748 75.1876 39.8601 66.6016 39.8601ZM66.6016 12.2329C59.9541 12.2329 54.5459 17.6411 54.5459 24.2888C54.5459 30.9364 59.9541 36.3445 66.6016 36.3445C73.2492 36.3445 78.6575 30.9363 78.6575 24.2888C78.6575 17.6413 73.2492 12.2329 66.6016 12.2329Z"
              fill="url(#painet3_linear)" />
            <path
              d="M66.6019 47.6864C53.7001 47.6864 43.2041 37.1903 43.2041 24.2887C43.2041 11.3871 53.7003 0.891113 66.6019 0.891113C79.5032 0.891113 89.9994 11.3873 89.9994 24.2887C89.9994 37.1903 79.5032 47.6864 66.6019 47.6864ZM66.6019 4.40672C55.6388 4.40672 46.7197 13.3258 46.7197 24.2887C46.7197 35.2516 55.6388 44.1708 66.6019 44.1708C77.5647 44.1708 86.4838 35.2517 86.4838 24.2887C86.4838 13.3256 77.5647 4.40672 66.6019 4.40672Z"
              fill="url(#painet4_linear)" />
            <defs>
              <linearGradient id="painet0_linear" x1="20.9936" y1="81.5979" x2="20.9936" y2="85.108"
                gradientUnits="userSpaceOnUse">
                <stop stop-color="#41AFC1" />
                <stop offset="1" stop-color="#D0E6EB" />
              </linearGradient>
              <linearGradient id="painet1_linear" x1="45.0001" y1="51.4407" x2="45.0001" y2="85.1079"
                gradientUnits="userSpaceOnUse">
                <stop stop-color="#41AFC1" />
                <stop offset="1" stop-color="#D0E6EB" />
              </linearGradient>
              <linearGradient id="painet2_linear" x1="66.602" y1="14.501" x2="66.602" y2="34.0765"
                gradientUnits="userSpaceOnUse">
                <stop stop-color="#41AFC1" />
                <stop offset="1" stop-color="#D0E6EB" />
              </linearGradient>
              <linearGradient id="painet3_linear" x1="66.6017" y1="8.71729" x2="66.6017" y2="39.8601"
                gradientUnits="userSpaceOnUse">
                <stop stop-color="#41AFC1" />
                <stop offset="1" stop-color="#D0E6EB" />
              </linearGradient>
              <linearGradient id="painet4_linear" x1="66.6018" y1="0.891113" x2="66.6018" y2="47.6864"
                gradientUnits="userSpaceOnUse">
                <stop stop-color="#41AFC1" />
                <stop offset="1" stop-color="#D0E6EB" />
              </linearGradient>
            </defs>
          </svg>