   <svg width="216" height="263" viewBox="0 0 216 263" fill="none" xmlns="http://www.w3.org/2000/svg">
              <circle cx="108" cy="108" r="107" stroke="#39516e" stroke-width="2" />
              <path
                d="M88.3653 155.502C94.7306 155.502 101.096 155.306 107.417 154.915C111.608 154.656 114.962 151.43 115.392 147.245C116.238 139.022 116.238 130.683 115.392 122.461C114.962 118.276 111.608 115.05 107.417 114.79C94.7751 114.008 81.9554 114.008 69.3134 114.79C65.1229 115.049 61.7689 118.275 61.3383 122.461C60.4927 130.683 60.4927 139.022 61.3383 147.244C61.7687 151.429 65.1227 154.655 69.3134 154.915C75.6342 155.306 81.9997 155.502 88.3653 155.502ZM64.8355 146.885C64.0145 138.901 64.0145 130.804 64.8355 122.82C65.0894 120.353 67.0638 118.452 69.5307 118.299C75.7795 117.912 82.0724 117.719 88.3653 117.719C94.6582 117.719 100.951 117.912 107.2 118.299C109.667 118.452 111.641 120.353 111.895 122.82C112.716 130.804 112.716 138.901 111.895 146.885C111.641 149.352 109.667 151.253 107.2 151.406C94.7025 152.179 82.0286 152.179 69.5307 151.406C67.0638 151.253 65.0891 149.352 64.8355 146.885Z"
                fill="#39516e" />
              <path
                d="M166.242 110.93C166.242 110.93 153.81 110.931 153.804 110.932C153.514 110.935 153.226 111.007 152.964 111.153L143.747 116.295H136.352C136.296 115.687 136.239 115.078 136.177 114.47C135.608 108.931 131.668 104.498 126.454 103.185C136.464 98.6724 143.449 88.5992 143.449 76.9249C143.449 75.3564 143.321 73.7821 143.07 72.246C142.913 71.288 142.009 70.6383 141.051 70.7956C140.092 70.9526 139.443 71.8567 139.6 72.8148C139.821 74.1634 139.934 75.5465 139.934 76.9249C139.934 90.8603 128.596 102.198 114.661 102.198C100.726 102.198 89.3884 90.8603 89.3884 76.9249C89.3884 62.9896 100.726 51.6523 114.661 51.6523C124.575 51.6523 133.618 57.4903 137.701 66.5254C138.101 67.4102 139.142 67.803 140.027 67.4034C140.912 67.0036 141.305 65.9624 140.905 65.0777C136.255 54.7865 125.953 48.1366 114.661 48.1366C99.858 48.1366 87.6303 59.3681 86.0478 73.7565C82.3532 68.0831 75.9548 64.3239 68.6944 64.3239C57.2834 64.3241 48 73.6075 48 85.0186C48 92.8415 52.3635 99.6638 58.7839 103.181C53.5614 104.489 49.6144 108.925 49.0451 114.47C47.6541 127.996 47.6541 141.71 49.0451 155.233C49.6343 160.973 53.8211 165.571 59.4636 166.674C60.4152 166.86 61.3398 166.239 61.5261 165.286C61.7122 164.334 61.0911 163.41 60.1381 163.224C56.025 162.42 52.9726 159.064 52.5425 154.874C51.1761 141.589 51.1761 128.116 52.5425 114.829C53.0193 110.187 56.7365 106.609 61.3813 106.321C82.1038 105.038 103.118 105.038 123.841 106.321C128.485 106.609 132.203 110.187 132.679 114.829C134.046 128.116 134.046 141.589 132.679 154.874C132.203 159.518 128.485 163.097 123.841 163.384C104.936 164.555 85.7803 164.659 66.9028 163.695C65.9341 163.645 65.107 164.391 65.0575 165.361C65.0081 166.33 65.7539 167.156 66.7235 167.206C75.3042 167.644 83.9409 167.863 92.587 167.863C103.094 167.863 113.615 167.54 124.058 166.893C130.426 166.499 135.523 161.595 136.177 155.233C136.239 154.626 136.296 154.017 136.352 153.408H143.745L152.964 158.552C153.231 158.701 153.526 158.775 153.821 158.775H166.242C167.213 158.775 168 157.988 168 157.017V112.688C168 111.717 167.213 110.93 166.242 110.93ZM51.5157 85.0186C51.5157 75.5463 59.2219 67.8398 68.6944 67.8398C78.1669 67.8398 85.8731 75.5463 85.8731 85.0186C85.8731 94.4911 78.1667 102.197 68.6944 102.197C59.2222 102.197 51.5157 94.4908 51.5157 85.0186ZM80.5265 101.987C84.6565 99.0985 87.6889 94.7433 88.8592 89.6825C91.4008 94.8023 95.4207 99.0638 100.359 101.903C93.7488 101.803 87.132 101.831 80.5265 101.987ZM136.652 119.811H142.445V149.893H136.652C137.407 139.891 137.407 129.813 136.652 119.811ZM152.063 154.023L145.962 150.619V119.086L152.063 115.681V154.023ZM164.484 155.259H155.579V114.446H164.484V155.259Z"
                fill="#39516e" />
              <path
                d="M81.0075 85.0185C81.0075 78.229 75.4839 72.7056 68.6943 72.7056C61.905 72.7056 56.3813 78.2292 56.3813 85.0185C56.3813 91.8081 61.905 97.3317 68.6943 97.3317C75.4839 97.3317 81.0075 91.8081 81.0075 85.0185ZM59.8971 85.0185C59.8971 80.1676 63.8436 76.2213 68.6943 76.2213C73.5453 76.2213 77.4918 80.1678 77.4918 85.0185C77.4918 89.8695 73.5453 93.816 68.6943 93.816C63.8436 93.816 59.8971 89.8695 59.8971 85.0185Z"
                fill="#39516e" />
              <path
                d="M99.541 76.925C99.541 85.2624 106.324 92.0451 114.661 92.0451C122.999 92.0451 129.782 85.2624 129.782 76.925C129.782 68.5876 122.999 61.8048 114.661 61.8048C106.324 61.8046 99.541 68.5876 99.541 76.925ZM126.266 76.925C126.266 83.3238 121.06 88.5294 114.661 88.5294C108.263 88.5294 103.057 83.3236 103.057 76.925C103.057 70.5261 108.263 65.3205 114.661 65.3205C121.06 65.3205 126.266 70.5261 126.266 76.925Z"
                fill="#39516e" />
              <path
                d="M79.4522 126.177H105.414C106.385 126.177 107.172 125.39 107.172 124.419C107.172 123.448 106.385 122.661 105.414 122.661H79.4522C78.4814 122.661 77.6943 123.448 77.6943 124.419C77.6943 125.39 78.4814 126.177 79.4522 126.177Z"
                fill="#39516e" />
              <path
                d="M105.414 130.677H88.3648C87.394 130.677 86.6069 131.464 86.6069 132.434C86.6069 133.405 87.394 134.192 88.3648 134.192H105.414C106.384 134.192 107.172 133.405 107.172 132.434C107.172 131.464 106.385 130.677 105.414 130.677Z"
                fill="#39516e" />
            </svg>