<svg width="216" height="263" viewBox="0 0 216 263" fill="none" xmlns="http://www.w3.org/2000/svg">
              <path
                d="M150.482 116.17H121.978C121.007 116.17 120.219 116.958 120.219 117.929C120.219 118.901 121.007 119.688 121.978 119.688H150.482C151.453 119.688 152.241 118.901 152.241 117.929C152.241 116.958 151.453 116.17 150.482 116.17Z"
                fill="#39516e" />
              <path
                d="M150.482 109.11H121.978C121.007 109.11 120.219 109.898 120.219 110.869C120.219 111.841 121.007 112.629 121.978 112.629H150.482C151.453 112.629 152.241 111.841 152.241 110.869C152.24 109.898 151.453 109.11 150.482 109.11Z"
                fill="#39516e" />
              <path
                d="M150.482 102.05H121.978C121.007 102.05 120.219 102.838 120.219 103.809C120.219 104.781 121.007 105.568 121.978 105.568H150.482C151.453 105.568 152.241 104.781 152.241 103.809C152.241 102.838 151.453 102.05 150.482 102.05Z"
                fill="#39516e" />
              <path
                d="M159.88 72.4928H83.3165V71.7149L143.967 60.0119C144.894 61.5883 146.604 62.6205 148.513 62.6205C148.848 62.6205 149.185 62.5881 149.517 62.5244L163.243 59.8757C166.1 59.3242 167.976 56.5511 167.425 53.6941C166.874 50.8368 164.1 48.9616 161.244 49.5119L147.517 52.1606C145.265 52.5951 143.624 54.4098 143.299 56.5577L83.2614 68.1426C82.9586 66.2688 81.3341 64.8316 79.3759 64.8316H61.4566C59.2837 64.8316 57.516 66.5992 57.516 68.7721V72.5153C52.7678 72.8275 49 76.7873 49 81.6131V146.214C49 151.243 53.0912 155.334 58.1202 155.334H61.6422L60.5575 161.68C60.3487 162.902 60.6871 164.146 61.4863 165.093C62.2855 166.041 63.4546 166.584 64.694 166.584H69.7694C71.3929 166.584 72.8856 165.633 73.5723 164.162L77.6922 155.334H140.308L144.428 164.162C145.115 165.633 146.608 166.584 148.231 166.584H153.306C154.546 166.584 155.715 166.041 156.514 165.093C157.313 164.146 157.652 162.902 157.443 161.68L156.358 155.334H159.88C164.909 155.334 169 151.243 169 146.214V81.6131C169 76.5841 164.909 72.4928 159.88 72.4928ZM148.184 55.615L161.91 52.9663C162.022 52.9448 162.134 52.9342 162.244 52.9342C163.07 52.9342 163.808 53.5199 163.971 54.3604C164.154 55.3129 163.529 56.2373 162.576 56.421L148.85 59.0697C148.738 59.0913 148.625 59.1023 148.513 59.1023C147.674 59.1023 146.949 58.5023 146.789 57.6756C146.606 56.7234 147.231 55.799 148.184 55.615ZM61.0342 68.7721C61.0342 68.5394 61.2236 68.3498 61.4566 68.3498H79.3762C79.6089 68.3498 79.7985 68.5391 79.7985 68.7721V72.493H61.0345V68.7721H61.0342ZM70.3837 162.674C70.2728 162.912 70.0314 163.066 69.7689 163.066H64.6937C64.4195 163.066 64.2513 162.915 64.1753 162.825C64.0994 162.735 63.9789 162.543 64.0251 162.273L65.211 155.334H73.8091L70.3837 162.674ZM153.825 162.825C153.749 162.915 153.58 163.066 153.306 163.066H148.231C147.968 163.066 147.727 162.912 147.616 162.674L144.19 155.334H152.789L153.974 162.273C154.021 162.543 153.901 162.735 153.825 162.825ZM165.482 146.214C165.482 149.303 162.969 151.816 159.88 151.816H58.1202C55.0314 151.816 52.5184 149.303 52.5184 146.214V81.6131C52.5184 78.5242 55.0314 76.0113 58.1202 76.0113H159.88C162.969 76.0113 165.482 78.5242 165.482 81.6131V146.214Z"
                fill="#39516e" />
              <path
                d="M67.6016 119.723C67.6016 131.299 77.0188 140.716 88.5941 140.716C100.169 140.716 109.587 131.299 109.587 119.723C109.587 108.148 100.169 98.7308 88.5941 98.7308C77.0188 98.7308 67.6016 108.148 67.6016 119.723ZM88.5938 137.197C84.1257 137.197 80.0457 135.51 76.9527 132.741H100.235C97.142 135.51 93.062 137.197 88.5938 137.197ZM103.249 129.223H73.9388C73.138 127.991 72.4885 126.654 72.0158 125.235H105.172C104.699 126.654 104.05 127.991 103.249 129.223ZM106.068 119.723C106.068 120.398 106.026 121.062 105.951 121.717H71.237C71.1622 121.062 71.1198 120.398 71.1198 119.723C71.1198 119.049 71.1622 118.384 71.237 117.73H105.951C106.026 118.384 106.068 119.049 106.068 119.723ZM105.172 114.211H72.0155C72.4885 112.793 73.1377 111.455 73.9386 110.224H103.249C104.05 111.455 104.699 112.793 105.172 114.211ZM76.9527 106.706C80.0457 103.937 84.1257 102.249 88.5938 102.249C93.062 102.249 97.142 103.937 100.235 106.706H76.9527Z"
                fill="#39516e" />
              <path
                d="M120.219 130.406C120.219 134.261 123.355 137.397 127.21 137.397C131.064 137.397 134.2 134.261 134.2 130.406C134.2 126.552 131.064 123.416 127.21 123.416C123.355 123.416 120.219 126.552 120.219 130.406ZM130.682 130.406C130.682 132.321 129.124 133.878 127.21 133.878C125.296 133.878 123.738 132.32 123.738 130.406C123.738 128.492 125.295 126.934 127.21 126.934C129.125 126.934 130.682 128.492 130.682 130.406Z"
                fill="#39516e" />
              <path
                d="M145.25 123.416C141.395 123.416 138.26 126.552 138.26 130.406C138.26 134.261 141.395 137.397 145.25 137.397C149.105 137.397 152.24 134.261 152.24 130.406C152.24 126.552 149.105 123.416 145.25 123.416ZM145.25 133.878C143.335 133.878 141.778 132.321 141.778 130.406C141.778 128.492 143.335 126.934 145.25 126.934C147.165 126.934 148.722 128.492 148.722 130.406C148.722 132.321 147.164 133.878 145.25 133.878Z"
                fill="#39516e" />
              <path
                d="M158.725 128.053C159.697 128.053 160.484 127.266 160.484 126.294V84.8824C160.484 82.5539 158.59 80.6597 156.262 80.6597H77.112C76.1405 80.6597 75.3527 81.4472 75.3527 82.4189C75.3527 83.3904 76.1402 84.1781 77.112 84.1781H156.262C156.65 84.1781 156.966 84.494 156.966 84.8826V91.5576H137.989H137.988V87.8676C137.988 86.8969 137.201 86.1098 136.23 86.1098C135.26 86.1098 134.473 86.8969 134.473 87.8676V91.5576H134.471H61.0343V84.8826C61.0343 84.4943 61.3502 84.1781 61.7386 84.1781H68.8917C69.8632 84.1781 70.6509 83.3906 70.6509 82.4189C70.6509 81.4474 69.8634 80.6597 68.8917 80.6597H61.7386C59.4103 80.6597 57.5159 82.5539 57.5159 84.8824V142.944C57.5159 145.273 59.4101 147.167 61.7386 147.167H156.262C158.59 147.167 160.484 145.273 160.484 142.944V134.518C160.484 133.547 159.697 132.759 158.725 132.759C157.754 132.759 156.966 133.546 156.966 134.518V142.944C156.966 143.333 156.65 143.649 156.262 143.649H61.7386C61.3502 143.649 61.0343 143.333 61.0343 142.944V95.0758H156.966V126.294C156.966 127.266 157.754 128.053 158.725 128.053Z"
                fill="#39516e" />
              <circle cx="108" cy="108" r="107" stroke="#39516e" stroke-width="2" />

            </svg>