  <svg width="216" height="263" viewBox="0 0 216 263" fill="none" xmlns="http://www.w3.org/2000/svg">
              <circle cx="108" cy="108" r="107" stroke="#39516e" stroke-width="2" />
              <g clip-path="#39516e">
                <path
                  d="M129.498 154.762C106.923 155.476 84.046 155.055 61.5007 153.508C57.2893 153.221 53.8761 149.979 53.385 145.8C50.8931 124.613 50.8931 103.126 53.385 81.9387C53.8761 77.7597 57.2893 74.5181 61.5009 74.2307C63.5279 74.0921 65.4092 73.9714 67.2524 73.8613C68.2216 73.8034 68.9605 72.9707 68.9026 72.0015C68.8445 71.0322 68.0142 70.2922 67.0428 70.3515C65.1896 70.4621 63.2986 70.5835 61.2614 70.7228C55.3627 71.1253 50.5815 75.6697 49.8931 81.5283C47.369 102.989 47.369 124.751 49.8931 146.211C50.5818 152.069 55.3627 156.614 61.2609 157.016C63.4135 157.164 65.5698 157.299 67.7277 157.426C67.7282 157.428 67.7284 157.431 67.7289 157.433L68.9481 162.677C69.1368 163.488 69.8599 164.037 70.659 164.037C70.7907 164.037 70.9246 164.022 71.0587 163.991C72.0045 163.771 72.5929 162.826 72.373 161.881L71.3847 157.63C83.5856 158.283 95.8541 158.615 108.095 158.615C115.283 158.615 122.462 158.502 129.61 158.276C130.58 158.245 131.342 157.434 131.311 156.463C131.281 155.493 130.464 154.724 129.498 154.762Z"
                  fill="#39516e" />
                <path
                  d="M166.107 81.528C165.418 75.6695 160.637 71.125 154.739 70.7225C142.448 69.8803 130.079 69.3752 117.707 69.1996L130.87 53.905C131.503 53.1689 131.42 52.059 130.684 51.4257C129.948 50.7923 128.838 50.8755 128.205 51.6113L113.112 69.149C109.874 69.1246 106.637 69.1225 103.402 69.1438L88.3132 51.6113C87.6796 50.8755 86.5697 50.792 85.8339 51.4257C85.0978 52.059 85.0146 53.1692 85.6482 53.905L98.8013 69.1886C90.5373 69.2988 82.2882 69.5568 74.076 69.9659C73.1063 70.0142 72.3592 70.8395 72.4075 71.8093C72.4558 72.779 73.2828 73.5258 74.2509 73.4775C100.863 72.1517 127.862 72.4049 154.499 74.2305C158.711 74.5178 162.124 77.7595 162.615 81.9385C165.107 103.126 165.107 124.612 162.615 145.8C162.124 149.979 158.711 153.221 154.498 153.508C148.538 153.918 142.464 154.254 136.444 154.506C135.474 154.547 134.721 155.366 134.762 156.337C134.801 157.282 135.58 158.021 136.517 158.021C136.541 158.021 136.567 158.021 136.592 158.02C139.26 157.908 141.939 157.777 144.614 157.633L143.627 161.88C143.407 162.826 143.996 163.771 144.941 163.99C145.075 164.022 145.209 164.036 145.341 164.036C146.14 164.036 146.863 163.488 147.052 162.676L148.271 157.432C148.271 157.43 148.272 157.428 148.272 157.425C150.436 157.297 152.596 157.163 154.738 157.016C160.637 156.613 165.418 152.069 166.107 146.21C168.631 124.751 168.631 102.988 166.107 81.528Z"
                  fill="#39516e" />
                <path
                  d="M59.27 86.1018C56.8394 104.527 56.8394 123.212 59.27 141.637C59.7667 145.402 62.8824 148.325 66.6784 148.587C80.3877 149.533 94.1939 150.006 108 150.006C121.806 150.006 135.612 149.533 149.321 148.587C153.117 148.325 156.233 145.402 156.73 141.637C159.16 123.212 159.16 104.527 156.73 86.1018C156.233 82.3368 153.117 79.414 149.321 79.1521C121.902 77.2595 94.097 77.2595 66.6782 79.1521C62.8822 79.4142 59.7664 82.337 59.27 86.1018ZM108 81.2487C121.725 81.2487 135.45 81.7191 149.079 82.6598C151.213 82.8072 152.965 84.4481 153.244 86.5617C155.634 104.682 155.634 123.057 153.244 141.177C152.965 143.291 151.214 144.932 149.079 145.079C121.821 146.961 94.1786 146.961 66.9205 145.079C64.786 144.932 63.0345 143.291 62.7556 141.177C60.3653 123.057 60.3653 104.682 62.7556 86.5617C63.0343 84.4481 64.786 82.8072 66.9205 82.6598C80.5497 81.7191 94.2747 81.2487 108 81.2487Z"
                  fill="#39516e" />
              </g>
            </svg>