 <svg width="216" height="263" viewBox="0 0 216 263" fill="none" xmlns="http://www.w3.org/2000/svg">
              <circle cx="108" cy="108" r="107" stroke="#39516e" stroke-width="2" />
              <g clip-path="#39516e">
                <path
                  d="M157.109 158.297H154.609V136.769C154.609 133.781 152.178 131.349 149.189 131.349H145.349C145.255 127.63 142.203 124.633 138.461 124.633H114.087V121.809C114.087 120.843 113.304 120.06 112.338 120.06C111.373 120.06 110.589 120.843 110.589 121.809V124.633H100.42C99.4546 124.633 98.6715 125.416 98.6715 126.382C98.6715 127.348 99.4546 128.131 100.42 128.131H138.461C140.274 128.131 141.759 129.559 141.851 131.349H83.8798C83.9719 129.559 85.4572 128.131 87.2698 128.131H92.4348C93.4006 128.131 94.1837 127.348 94.1837 126.382C94.1837 125.416 93.4006 124.633 92.4348 124.633H87.2698C83.5285 124.633 80.476 127.63 80.3818 131.349H76.5422C73.5537 131.349 71.1223 133.781 71.1223 136.769V144.735C69.4662 144.43 68.4828 143.812 67.9015 142.337C67.2727 140.742 65.3684 127.741 66.2267 123.589C67.1429 119.156 70.7091 115.01 76.0112 112.213C81.6352 109.247 88.4968 106.96 93.9186 106.246C111.164 103.977 128.656 109.055 142.008 120.183L142.356 121.584C143.023 124.272 145.468 126.093 148.132 126.093C148.569 126.093 149.013 126.044 149.454 125.942L149.546 125.921C151.11 125.559 152.433 124.606 153.273 123.237C154.111 121.869 154.361 120.258 153.974 118.702L137.546 52.5092C136.769 49.3803 133.581 47.4263 130.448 48.151L130.353 48.1728C128.79 48.5342 127.468 49.4862 126.629 50.8536C125.79 52.2216 125.541 53.8332 125.927 55.3911L126.342 57.0619C123.348 64.3627 119.059 70.9494 113.581 76.6424C108.004 82.4382 101.458 87.0419 94.1258 90.3262C91.9876 91.2838 89.7228 92.0144 87.3252 92.7873C85.3702 93.4178 83.3487 94.0698 81.4142 94.8543C77.5995 96.4014 72.6509 98.5729 68.2055 101.658C61.59 106.249 57.0985 112.299 55.5586 118.694C54.5979 122.683 54.6483 127.253 55.7124 132.666C55.7358 132.785 58.2256 144.85 59.929 147.474C61.6001 150.067 64.2448 152.033 67.1799 152.866C67.9095 153.076 68.6621 153.22 69.4095 153.295C69.7904 153.335 70.1757 153.356 70.5547 153.358L70.7979 153.359C70.801 153.359 70.8043 153.359 70.8073 153.359C70.8204 153.359 70.8336 153.359 70.8467 153.359L71.1232 153.351V158.297H68.6218C66.4071 158.297 64.6053 160.099 64.6053 162.314V163.984C64.6053 166.198 66.4069 168 68.6218 168H157.109C159.324 168 161.126 166.198 161.126 163.984V162.314C161.126 160.099 159.324 158.297 157.109 158.297ZM129.61 52.6824C129.955 52.1206 130.498 51.7294 131.146 51.5794L131.228 51.5602C131.41 51.518 131.593 51.4979 131.774 51.4979C132.871 51.4979 133.877 52.2467 134.151 53.3516L150.579 119.544C150.738 120.184 150.636 120.846 150.291 121.408C149.946 121.972 149.401 122.364 148.751 122.514L148.671 122.533C147.38 122.831 146.07 122.028 145.751 120.741L145.264 118.782C145.264 118.781 145.264 118.781 145.264 118.781L129.875 56.7777C129.875 56.7774 129.875 56.7774 129.875 56.7772L129.322 54.5487C129.163 53.9077 129.265 53.2449 129.61 52.6824ZM71.1223 149.854L70.7928 149.862L70.5734 149.86C70.3081 149.859 70.0379 149.844 69.7632 149.815C69.2175 149.761 68.6731 149.656 68.1397 149.503C66.0061 148.897 64.0847 147.467 62.8648 145.575C61.9442 144.157 59.9035 135.858 59.1434 131.992C58.1785 127.084 58.1178 123.002 58.958 119.513C60.297 113.954 64.2889 108.633 70.1989 104.532C74.3609 101.643 79.0808 99.5751 82.7276 98.0959C84.5431 97.3595 86.5027 96.7276 88.3977 96.1166C90.7791 95.3486 93.2417 94.5543 95.5545 93.5186C103.298 90.0503 110.211 85.1884 116.1 79.0682C120.825 74.158 124.715 68.6199 127.705 62.555L140.646 114.695C127.08 104.904 110.16 100.581 93.4618 102.779C87.5689 103.555 80.4355 105.925 74.3792 109.12C68.1497 112.406 63.9298 117.422 62.8013 122.882C61.7857 127.796 63.8419 141.577 64.6475 143.62C66.0021 147.058 68.8758 147.972 71.1223 148.285V149.854ZM157.109 164.502H68.6218C68.3358 164.502 68.1031 164.27 68.1031 163.984V162.314C68.1031 162.028 68.3358 161.795 68.6218 161.795H129.022C129.988 161.795 130.771 161.013 130.771 160.047C130.771 159.08 129.988 158.298 129.022 158.298H74.6204V137.446V136.769C74.6204 135.709 75.4826 134.847 76.5422 134.847H149.189C150.249 134.847 151.111 135.71 151.111 136.769V158.298H137.17C136.204 158.298 135.421 159.08 135.421 160.047C135.421 161.013 136.204 161.795 137.17 161.795H157.109C157.395 161.795 157.628 162.028 157.628 162.314V163.984H157.628C157.628 164.27 157.395 164.502 157.109 164.502Z"
                  fill="#39516e" />
                <path
                  d="M116.199 138.235C114.79 138.235 113.451 138.671 112.339 139.466C111.226 138.671 109.887 138.235 108.478 138.235C104.812 138.235 101.829 141.217 101.829 144.883C101.829 152.149 111.298 155.938 111.701 156.096C111.906 156.176 112.122 156.216 112.339 156.216C112.555 156.216 112.771 156.176 112.976 156.096C113.379 155.938 122.848 152.149 122.848 144.883C122.848 141.217 119.865 138.235 116.199 138.235ZM112.351 152.559C110.524 151.695 105.327 148.882 105.327 144.883C105.327 143.146 106.74 141.732 108.478 141.732C109.453 141.732 110.358 142.174 110.961 142.944C111.293 143.367 111.801 143.615 112.338 143.615C112.876 143.615 113.384 143.367 113.715 142.944C114.318 142.174 115.223 141.732 116.199 141.732C117.936 141.732 119.35 143.146 119.35 144.883C119.35 148.568 114.776 151.44 112.351 152.559Z"
                  fill="#39516e" />
              </g>
            </svg>