<svg width="24" height="24" viewBox="0 0 24 24"  fill="white" xmlns="http://www.w3.org/2000/svg">
<path d="M22.4999 14.9917C22.4999 16.2344 21.4924 17.2417 20.2499 17.2417H2.56041L5.52287 14.2792L4.46233 13.2187L0.219589 17.4614C-0.0731964 17.7544 -0.0731964 18.2292 0.219589 18.522L4.46233 22.7647L5.52287 21.7042L2.56041 18.7417H20.2499C22.3199 18.7393 23.9973 17.0617 23.9999 14.9917V11.9917H22.4999V14.9917Z" />
<path d="M1.5 8.99176C1.5 7.74921 2.50745 6.74176 3.75 6.74176H21.4395L18.477 9.70422L19.5375 10.7648L23.7803 6.52203C24.0731 6.22906 24.0731 5.75446 23.7803 5.46149L19.5375 1.21875L18.477 2.2793L21.4395 5.24176H3.75C1.67999 5.24432 0.00256348 6.92175 0 8.99176V11.9918H1.5V8.99176Z"/>
</svg>