<svg width="24" height="24" viewBox="0 0 24 24" fill="none" xmlns="http://www.w3.org/2000/svg">
<path d="M22.5 14.9917C22.5 16.2344 21.4925 17.2417 20.25 17.2417H2.56053L5.52299 14.2792L4.46245 13.2187L0.219711 17.4614C-0.0730743 17.7544 -0.0730743 18.2292 0.219711 18.522L4.46245 22.7647L5.52299 21.7042L2.56053 18.7417H20.25C22.32 18.7393 23.9974 17.0617 24 14.9917V11.9917H22.5V14.9917Z" fill="white"/>
<path d="M1.5 8.99176C1.5 7.74921 2.50745 6.74176 3.75 6.74176H21.4395L18.477 9.70422L19.5375 10.7648L23.7803 6.52203C24.0731 6.22906 24.0731 5.75446 23.7803 5.46149L19.5375 1.21875L18.477 2.2793L21.4395 5.24176H3.75C1.67999 5.24432 0.00256348 6.92175 0 8.99176V11.9918H1.5V8.99176Z" fill="white"/>
</svg>
