<svg width="30" height="30" viewBox="0 0 30 30" fill="#404263" xmlns="http://www.w3.org/2000/svg">
  <path d="M29.9813 13.125V0L25.5751 4.40623C22.8656 1.6875 19.125 0 14.9812 0C6.69376 0 0 6.71248 0 15C0 23.2876 6.69376 30.0001 14.9812 30.0001C21.9656 30.0001 27.8157 25.2188 29.475 18.7501H25.5751C24.0282 23.1189 19.8844 26.2501 14.9813 26.2501C8.76569 26.2501 3.73131 21.2157 3.73131 15C3.73131 8.78441 8.76569 3.75003 14.9813 3.75003C18.0845 3.75003 20.8689 5.04378 22.9032 7.07819L16.8563 13.1251H29.9813V13.125Z"/>
 
  </svg>