<svg width="120" height="120" viewBox="0 0 120 120" fill="none" xmlns="http://www.w3.org/2000/svg">
<g clip-path="url(#clip0)">
<path d="M60 0C71.8669 0 83.4672 3.51894 93.3342 10.1118C103.201 16.7047 110.891 26.0754 115.433 37.039C119.974 48.0026 121.162 60.0666 118.847 71.7054C116.532 83.3443 110.818 94.0353 102.426 102.426C94.0352 110.818 83.3442 116.532 71.7054 118.847C60.0665 121.162 48.0025 119.974 37.039 115.433C26.0754 110.892 16.7047 103.201 10.1118 93.3342C3.51891 83.4673 -3.05176e-05 71.8669 -3.05176e-05 60C0.0178375 44.0925 6.34499 28.8416 17.5933 17.5933C28.8416 6.34501 44.0925 0.0178658 60 0V0ZM60 116.719C71.2179 116.719 82.1839 113.392 91.5112 107.16C100.839 100.928 108.108 92.0693 112.401 81.7053C116.694 71.3413 117.817 59.9371 115.629 48.9347C113.44 37.9324 108.038 27.826 100.106 19.8938C92.1739 11.9615 82.0676 6.55959 71.0653 4.37108C60.0629 2.18258 48.6586 3.3058 38.2946 7.59871C27.9306 11.8916 19.0724 19.1614 12.8401 28.4888C6.60772 37.8161 3.28122 48.7821 3.28122 60C3.29834 75.0375 9.27955 89.4542 19.9127 100.087C30.5458 110.72 44.9625 116.702 60 116.719ZM9.37497 60C9.37497 73.4266 14.7087 86.3033 24.2027 95.7973C33.6967 105.291 46.5734 110.625 60 110.625C73.4266 110.625 86.3032 105.291 95.7973 95.7973C105.291 86.3033 110.625 73.4266 110.625 60C110.625 59.5649 110.452 59.1476 110.144 58.8399C109.837 58.5322 109.419 58.3594 108.984 58.3594C108.549 58.3594 108.132 58.5322 107.824 58.8399C107.517 59.1476 107.344 59.5649 107.344 60C107.356 71.011 103.534 81.6827 96.5339 90.1825C89.5341 98.6823 79.7934 104.48 68.9845 106.58C58.1755 108.68 46.9727 106.951 37.2997 101.69C27.6267 96.4288 20.0872 87.9643 15.9757 77.7497C11.8642 67.535 11.4374 56.2076 14.7684 45.7125C18.0995 35.2174 24.9807 26.2095 34.2303 20.2356C43.4799 14.2616 54.5208 11.6944 65.4572 12.9748C76.3935 14.2552 86.5429 19.3033 94.1625 27.2522C94.3106 27.4118 94.4889 27.5402 94.6872 27.6302C94.8854 27.7201 95.0996 27.7697 95.3172 27.7761C95.5348 27.7824 95.7515 27.7454 95.9546 27.6671C96.1578 27.5889 96.3433 27.471 96.5005 27.3204C96.6576 27.1697 96.7832 26.9893 96.8699 26.7896C96.9566 26.5899 97.0027 26.3749 97.0055 26.1573C97.0083 25.9396 96.9678 25.7235 96.8862 25.5217C96.8047 25.3198 96.6838 25.1362 96.5306 24.9816C89.5432 17.6825 80.5306 12.6425 70.6536 10.5107C60.7766 8.37887 50.4876 9.25281 41.1117 13.02C31.7357 16.7872 23.7023 23.275 18.0461 31.648C12.3898 40.021 9.36981 49.8956 9.37497 60ZM108.235 44.6138C107.644 42.7642 106.947 40.9506 106.146 39.1819C106.057 38.9856 105.93 38.8088 105.773 38.6616C105.615 38.5143 105.431 38.3994 105.229 38.3236C105.027 38.2477 104.813 38.2123 104.597 38.2194C104.382 38.2265 104.17 38.2759 103.974 38.3648C103.778 38.4538 103.601 38.5805 103.454 38.7378C103.306 38.8951 103.191 39.0798 103.116 39.2815C103.04 39.4832 103.004 39.6978 103.011 39.9131C103.018 40.1285 103.068 40.3403 103.157 40.5366C103.905 42.1891 104.557 43.8835 105.11 45.6113C105.173 45.8192 105.277 46.0126 105.415 46.18C105.554 46.3475 105.724 46.4858 105.917 46.5868C106.109 46.6878 106.32 46.7496 106.536 46.7685C106.753 46.7875 106.971 46.7632 107.178 46.6971C107.385 46.631 107.577 46.5244 107.743 46.3836C107.908 46.2427 108.044 46.0703 108.142 45.8765C108.241 45.6827 108.3 45.4712 108.316 45.2544C108.332 45.0377 108.304 44.8199 108.235 44.6138ZM68.2622 36.4453H51.7387C50.0604 36.4453 48.4508 35.7786 47.2641 34.5919C46.0773 33.4051 45.4106 31.7955 45.4106 30.1172C45.4106 28.4389 46.0773 26.8293 47.2641 25.6425C48.4508 24.4558 50.0604 23.7891 51.7387 23.7891H68.2622C69.9405 23.7891 71.5501 24.4558 72.7368 25.6425C73.9236 26.8293 74.5903 28.4389 74.5903 30.1172C74.5903 31.7955 73.9236 33.4051 72.7368 34.5919C71.5501 35.7786 69.9405 36.4453 68.2622 36.4453ZM68.2622 27.0703H51.7387C50.9306 27.0703 50.1557 27.3913 49.5843 27.9627C49.0129 28.5341 48.6918 29.3091 48.6918 30.1172C48.6918 30.9253 49.0129 31.7003 49.5843 32.2717C50.1557 32.8431 50.9306 33.1641 51.7387 33.1641H68.2622C69.0702 33.1641 69.8452 32.8431 70.4166 32.2717C70.988 31.7003 71.309 30.9253 71.309 30.1172C71.309 29.3091 70.988 28.5341 70.4166 27.9627C69.8452 27.3913 69.0702 27.0703 68.2622 27.0703ZM66.3281 83.5547V55.2103H68.2622C69.9405 55.2103 71.5501 54.5436 72.7368 53.3568C73.9236 52.1701 74.5903 50.5605 74.5903 48.8822C74.5903 47.2039 73.9236 45.5943 72.7368 44.4075C71.5501 43.2208 69.9405 42.5541 68.2622 42.5541H51.7387C50.0604 42.5541 48.4508 43.2208 47.2641 44.4075C46.0773 45.5943 45.4106 47.2039 45.4106 48.8822C45.4106 50.5605 46.0773 52.1701 47.2641 53.3568C48.4508 54.5436 50.0604 55.2103 51.7387 55.2103H53.6718V83.5547H51.7387C51.3036 83.5547 50.8863 83.7275 50.5786 84.0352C50.2709 84.3429 50.0981 84.7602 50.0981 85.1953C50.0981 85.6304 50.2709 86.0477 50.5786 86.3554C50.8863 86.6631 51.3036 86.8359 51.7387 86.8359H55.3125C55.528 86.8361 55.7414 86.7937 55.9405 86.7113C56.1396 86.6289 56.3205 86.5081 56.4728 86.3557C56.6252 86.2033 56.7461 86.0224 56.8285 85.8233C56.9109 85.6242 56.9532 85.4108 56.9531 85.1953V53.5697C56.9532 53.3542 56.9109 53.1408 56.8285 52.9417C56.7461 52.7426 56.6252 52.5617 56.4728 52.4093C56.3205 52.2569 56.1396 52.1361 55.9405 52.0537C55.7414 51.9713 55.528 51.9289 55.3125 51.9291H51.7387C50.9306 51.9291 50.1557 51.6081 49.5843 51.0367C49.0129 50.4653 48.6918 49.6903 48.6918 48.8822C48.6918 48.0741 49.0129 47.2991 49.5843 46.7277C50.1557 46.1563 50.9306 45.8353 51.7387 45.8353H68.2622C69.0702 45.8353 69.8452 46.1563 70.4166 46.7277C70.988 47.2991 71.309 48.0741 71.309 48.8822C71.309 49.6903 70.988 50.4653 70.4166 51.0367C69.8452 51.6081 69.0702 51.9291 68.2622 51.9291H64.6875C64.2523 51.9291 63.835 52.1019 63.5274 52.4096C63.2197 52.7173 63.0468 53.1346 63.0468 53.5697V85.1953C63.0468 85.6304 63.2197 86.0477 63.5274 86.3554C63.835 86.6631 64.2523 86.8359 64.6875 86.8359H68.2622C69.0702 86.8359 69.8452 87.1569 70.4166 87.7283C70.988 88.2998 71.309 89.0747 71.309 89.8828C71.309 90.6909 70.988 91.4659 70.4166 92.0373C69.8452 92.6087 69.0702 92.9297 68.2622 92.9297H51.7387C51.3036 92.9297 50.8863 93.1025 50.5786 93.4102C50.2709 93.7179 50.0981 94.1352 50.0981 94.5703C50.0981 95.0054 50.2709 95.4227 50.5786 95.7304C50.8863 96.0381 51.3036 96.2109 51.7387 96.2109H68.2622C69.9405 96.2109 71.5501 95.5442 72.7368 94.3575C73.9236 93.1707 74.5903 91.5611 74.5903 89.8828C74.5903 88.2045 73.9236 86.5949 72.7368 85.4081C71.5501 84.2214 69.9405 83.5547 68.2622 83.5547H66.3281Z" fill="url(#paint0_linear)"/>
</g>
<defs>
<linearGradient id="paint0_linear" x1="120" y1="120" x2="51.325" y2="6.84635" gradientUnits="userSpaceOnUse">
<stop stop-color="#483156"/>
<stop offset="1" stop-color="#39516E"/>
</linearGradient>
<clipPath id="clip0">
<rect width="120" height="120" fill="white" transform="matrix(-1 0 0 1 120 0)"/>
</clipPath>
</defs>
</svg>
