<svg width="24" height="24" viewBox="0 0 24 24" fill="none" xmlns="http://www.w3.org/2000/svg">
<path d="M13.4131 1.3651L13.4147 1.36382C13.5011 1.29411 13.622 1.27822 13.7304 1.32919C13.8349 1.38066 13.9 1.48606 13.9 1.60025V22.4003C13.9 22.5154 13.834 22.62 13.7309 22.6695C13.686 22.6908 13.6414 22.7003 13.6 22.7003C13.5332 22.7003 13.4657 22.678 13.4103 22.6344C13.41 22.6342 13.4097 22.634 13.4094 22.6337L5.63078 16.4098L5.49381 16.3003H5.3184H1.6C0.994217 16.3003 0.5 15.807 0.5 15.2003V8.80025C0.5 8.19479 0.994542 7.70025 1.6 7.70025H5.3184H5.49378L5.63074 7.59069L13.4131 1.3651Z" stroke="white"/>
<path d="M16.5475 6.07101L20.1653 11.7559L16.5475 16.9158L16.5475 6.07101Z" stroke="white"/>
</svg>
