 <svg width="36" height="36" viewBox="0 0 36 36" fill="none" xmlns="http://www.w3.org/2000/svg">
            <path
              d="M19.9886 18.0008L35.5879 2.40143C36.1371 1.85222 36.1371 0.96178 35.5879 0.41264C35.0387 -0.1365 34.1482 -0.13657 33.5991 0.41264L17.9997 16.012L2.40045 0.41264C1.85124 -0.13657 0.960803 -0.13657 0.411663 0.41264C-0.137476 0.96185 -0.137547 1.85229 0.411663 2.40143L16.011 18.0007L0.411663 33.6001C-0.137547 34.1493 -0.137547 35.0397 0.411663 35.5889C0.686233 35.8634 1.04616 36.0007 1.40609 36.0007C1.76602 36.0007 2.12588 35.8634 2.40052 35.5889L17.9997 19.9896L33.599 35.5889C33.8736 35.8634 34.2335 36.0007 34.5935 36.0007C34.9534 36.0007 35.3132 35.8634 35.5879 35.5889C36.1371 35.0397 36.1371 34.1492 35.5879 33.6001L19.9886 18.0008Z"
              fill="url(#paintdd0_linear)" />
            <defs>
              <linearGradient id="paintdd0_linear" x1="-0.000244141" y1="36.0007" x2="20.6022" y2="2.05459"
                gradientUnits="userSpaceOnUse">
                <stop stop-color="#483156" />
                <stop offset="1" stop-color="#39516E" />
              </linearGradient>
            </defs>
          </svg>