  <svg class="audiopage-sila" width="161" height="528" viewBox="0 0 161 528" fill="none"
      xmlns="http://www.w3.org/2000/svg">
      <path
        d="M154.563 100.075L154.531 100.747L155.076 100.773L155.213 100.245L154.563 100.075ZM108.218 1.0063L108.202 1.67922L108.203 1.67923L108.218 1.0063ZM6.65906 100.964L6.00716 101.127L6.13939 101.657L6.68412 101.636L6.65906 100.964ZM30.3857 100.075L30.4109 100.747L31.1818 100.718L31.0474 99.9579L30.3857 100.075ZM52.7819 27.4394L52.7577 26.7667L52.7505 26.767L52.7819 27.4394ZM108.218 27.4394L108.194 28.1121L108.197 28.1122L108.218 27.4394ZM130.836 98.9644L130.175 98.8452L130.038 99.6011L130.804 99.6368L130.836 98.9644ZM154.563 100.075C155.213 100.245 155.213 100.244 155.213 100.244V100.243C155.213 100.243 155.214 100.241 155.214 100.24C155.215 100.237 155.216 100.233 155.217 100.227C155.221 100.216 155.225 100.2 155.23 100.178C155.241 100.134 155.257 100.07 155.279 99.9861C155.321 99.8172 155.384 99.5675 155.463 99.2437C155.622 98.5955 155.847 97.6498 156.119 96.455C156.661 94.0661 157.384 90.6831 158.107 86.7009C159.551 78.7434 161 68.3694 161 58.7593H159.656C159.656 68.2523 158.223 78.5361 156.784 86.4606C156.066 90.4192 155.347 93.7834 154.809 96.1568C154.539 97.3428 154.315 98.2818 154.158 98.9233C154.08 99.2437 154.018 99.4901 153.976 99.6556C153.955 99.7391 153.939 99.8017 153.928 99.8434C153.923 99.8643 153.919 99.8805 153.916 99.8906C153.915 99.896 153.914 99.8993 153.914 99.902C153.913 99.9034 153.912 99.9047 153.912 99.9047C153.912 99.9047 153.912 99.9054 154.563 100.075ZM161 58.7593C161 23.9871 137.226 1.00878 108.234 0.333373L108.203 1.67923C136.42 2.33659 159.656 24.6722 159.656 58.7593H161ZM108.234 0.333386C89.8186 -0.111128 71.1814 -0.111129 52.7657 0.333386L52.7976 1.67923C71.1916 1.23524 89.8079 1.23523 108.202 1.67922L108.234 0.333386ZM52.7657 0.333386C23.7765 1.00871 1.34391e-06 23.5393 0 58.7593H1.34391C1.34391 24.2315 24.5766 2.33666 52.7976 1.67923L52.7657 0.333386ZM0 58.7593C-6.71953e-07 67.9271 1.5053 78.5253 3.00432 86.812C3.75458 90.959 4.50481 94.5359 5.06758 97.0763C5.34899 98.3464 5.58359 99.3581 5.74798 100.052C5.83017 100.399 5.89482 100.667 5.93899 100.849C5.96108 100.94 5.97804 101.009 5.98953 101.056C5.99527 101.079 5.99964 101.097 6.0026 101.108C6.00407 101.114 6.0052 101.119 6.00596 101.122C6.00634 101.124 6.00663 101.124 6.00684 101.126L6.00707 101.126C6.00707 101.126 6.00716 101.127 6.65906 100.964C7.31092 100.8 7.31092 100.8 7.31092 100.8L7.31072 100.799C7.31072 100.799 7.31032 100.798 7.30998 100.797C7.30931 100.794 7.30823 100.789 7.30682 100.784C7.30407 100.772 7.29983 100.756 7.29426 100.733C7.28304 100.688 7.26644 100.62 7.24467 100.53C7.20112 100.352 7.13716 100.086 7.05565 99.7418C6.89256 99.0532 6.65946 98.0482 6.3796 96.7848C5.81975 94.2579 5.0732 90.6985 4.32669 86.5717C2.83215 78.3099 1.3439 67.806 1.34391 58.7593H0ZM6.68412 101.636L30.4109 100.747L30.3606 99.4025L6.63393 100.291L6.68412 101.636ZM30.3857 100.075C31.0474 99.9579 31.0474 99.9579 31.0474 99.9579L31.0472 99.9565C31.0472 99.9565 31.0468 99.9545 31.0465 99.9525C31.0459 99.9491 31.045 99.9437 31.0438 99.937C31.0414 99.9235 31.0377 99.9027 31.0329 99.8751C31.0233 99.8205 31.009 99.7391 30.9904 99.6321C30.9531 99.418 30.8985 99.1023 30.8288 98.6958C30.6896 97.8833 30.4906 96.7081 30.2518 95.2589C29.7742 92.3604 29.1374 88.3669 28.5006 83.9849C27.2247 75.2048 25.9576 64.9227 25.9576 58.7593H24.6137C24.6137 65.0351 25.8966 75.4108 27.1707 84.1788C27.809 88.5708 28.4472 92.5738 28.9258 95.4783C29.1652 96.9309 29.3646 98.1088 29.5043 98.924C29.5741 99.3312 29.629 99.6482 29.6665 99.8636C29.6852 99.9707 29.6996 100.053 29.7093 100.108C29.7141 100.136 29.7178 100.157 29.7203 100.171C29.7215 100.178 29.7224 100.183 29.7231 100.187C29.7234 100.189 29.7238 100.191 29.7238 100.191L29.724 100.192C29.724 100.192 29.7241 100.192 30.3857 100.075ZM25.9576 58.7593C25.9576 48.9208 29.2275 41.4316 34.1934 36.322C39.1651 31.2064 45.8736 28.4376 52.8134 28.1118L52.7505 26.767C45.4986 27.1076 38.459 30.003 33.2304 35.383C27.9961 40.7689 24.6137 48.6065 24.6137 58.7593H25.9576ZM52.8062 28.1121C71.1948 27.4463 89.5835 27.4463 108.194 28.1121L108.242 26.7667C89.5996 26.0998 71.1787 26.0997 52.7577 26.7667L52.8062 28.1121ZM108.197 28.1122C122.019 28.5449 135.042 39.5686 135.042 58.7593H136.386C136.386 38.8557 122.801 27.2225 108.239 26.7666L108.197 28.1122ZM135.042 58.7593C135.042 65.2573 133.83 75.2641 132.61 83.68C132.001 87.8802 131.392 91.6725 130.935 94.4148C130.707 95.7852 130.517 96.8939 130.384 97.6585C130.317 98.0415 130.265 98.3384 130.229 98.5389C130.211 98.6399 130.198 98.716 130.188 98.7678C130.184 98.7934 130.18 98.8129 130.178 98.8257C130.177 98.8324 130.176 98.8371 130.175 98.8405C130.175 98.8418 130.175 98.8439 130.175 98.8439V98.8452C130.175 98.8452 130.175 98.8452 130.836 98.9644C131.497 99.0835 131.497 99.0835 131.497 99.0835V99.0822C131.497 99.0822 131.498 99.0801 131.499 99.0788C131.499 99.0754 131.5 99.07 131.501 99.064C131.503 99.0505 131.507 99.031 131.511 99.0047C131.521 98.9529 131.534 98.8755 131.552 98.7745C131.588 98.5719 131.641 98.2737 131.708 97.8901C131.841 97.122 132.032 96.0107 132.261 94.6362C132.719 91.8873 133.33 88.0855 133.94 83.8732C135.159 75.4626 136.386 65.3669 136.386 58.7593H135.042ZM130.804 99.6368L154.531 100.747L154.594 99.4025L130.868 98.2919L130.804 99.6368ZM2.88939 245.018H2.21744V245.691H2.88939V245.018ZM158.111 245.018V245.691H158.783V245.018H158.111ZM158.111 215.92H158.783V215.523L158.437 215.331L158.111 215.92ZM59.8778 161.276L60.204 160.687L60.1735 160.671L60.1416 160.657L59.8778 161.276ZM40.1425 152.836L40.1935 152.164L39.8786 153.454L40.1425 152.836ZM60.543 154.39L60.492 155.062L60.5175 155.064H60.543V154.39ZM158.111 154.39V155.064H158.783V154.39H158.111ZM158.111 128.624H158.783V127.951H158.111V128.624ZM2.8894 128.624V127.951H2.21744V128.624H2.8894ZM2.8894 157.722H2.21744V158.118L2.56318 158.311L2.8894 157.722ZM101.122 212.366L100.796 212.954L100.827 212.971L100.858 212.984L101.122 212.366ZM120.858 220.806L120.808 221.478L121.122 220.187L120.858 220.806ZM99.7918 219.252L99.8408 218.58L99.8166 218.578H99.7918V219.252ZM2.88939 219.252V218.578H2.21744V219.252H2.88939ZM2.88939 245.691H158.111V244.345H2.88939V245.691ZM158.783 245.018V215.92H157.439V245.018H158.783ZM158.437 215.331L60.204 160.687L59.5515 161.865L157.785 216.508L158.437 215.331ZM60.1416 160.657L40.4064 152.216L39.8786 153.454L59.6139 161.895L60.1416 160.657ZM40.0915 153.507L60.492 155.062L60.594 153.719L40.1935 152.164L40.0915 153.507ZM60.543 155.064H158.111V153.717H60.543V155.064ZM158.783 154.39V128.624H157.439V154.39H158.783ZM158.111 127.951H2.8894V129.297H158.111V127.951ZM2.21744 128.624V157.722H3.56135V128.624H2.21744ZM2.56318 158.311L100.796 212.954L101.448 211.777L3.21561 157.133L2.56318 158.311ZM100.858 212.984L120.593 221.425L121.122 220.187L101.386 211.746L100.858 212.984ZM120.907 220.135L99.8408 218.58L99.7427 219.923L120.808 221.478L120.907 220.135ZM99.7918 218.578H2.88939V219.925H99.7918V218.578ZM2.21744 219.252V245.018H3.56134V219.252H2.21744ZM158.111 293.796H158.783V293.123H158.111V293.796ZM2.88939 266.03L3.26281 265.47L2.21744 264.77V266.03H2.88939ZM2.88939 294.018H2.21744V294.39L2.53128 294.588L2.88939 294.018ZM133.497 319.341H134.169V318.668H133.497V319.341ZM133.497 364.655V365.328H134.169V364.655H133.497ZM2.88939 364.655V363.982H2.21744V364.655H2.88939ZM2.88938 390.643H2.21743V391.317H2.88938V390.643ZM158.111 390.643V391.317H158.783V390.643H158.111ZM158.111 293.123H102.009V294.469H158.111V293.123ZM102.009 293.123C73.2886 293.123 48.5936 286.206 31.0757 279.286C22.3179 275.827 15.3578 272.369 10.5899 269.777C8.20603 268.481 6.37059 267.402 5.13286 266.648C4.51402 266.271 4.04464 265.975 3.7309 265.774C3.57404 265.674 3.45608 265.597 3.3778 265.546C3.33867 265.521 3.30945 265.501 3.29026 265.488C3.28065 265.482 3.27356 265.478 3.26898 265.474C3.2667 265.473 3.26504 265.472 3.264 265.471L3.26281 265.47C3.26281 265.47 3.26281 265.47 2.88939 266.03C2.51597 266.59 2.51679 266.59 2.51679 266.59L2.51856 266.592C2.52006 266.592 2.5222 266.594 2.52496 266.596C2.53048 266.599 2.53852 266.604 2.54907 266.612C2.57018 266.626 2.60132 266.646 2.6424 266.673C2.72456 266.727 2.84648 266.806 3.0074 266.909C3.32922 267.115 3.80703 267.416 4.43463 267.798C5.68982 268.562 7.54436 269.653 9.94881 270.96C14.7575 273.574 21.7673 277.057 30.5827 280.539C48.2114 287.502 73.0763 294.469 102.009 294.469V293.123ZM2.21744 266.03V294.018H3.56134V266.03H2.21744ZM2.88939 294.018C2.53128 294.588 2.5321 294.588 2.5321 294.588L2.53384 294.589C2.5353 294.59 2.53738 294.592 2.54006 294.593C2.54544 294.596 2.55325 294.601 2.56349 294.608C2.58398 294.621 2.61419 294.639 2.65404 294.664C2.73372 294.713 2.85196 294.786 3.00804 294.879C3.32021 295.067 3.7838 295.342 4.39329 295.69C5.61224 296.388 7.41487 297.382 9.75703 298.574C14.4411 300.959 21.2843 304.136 29.9327 307.311C47.228 313.662 71.7545 320.014 100.679 320.014V318.668C71.9494 318.668 47.5812 312.358 30.3952 306.047C21.8031 302.893 15.0089 299.738 10.3659 297.374C8.04443 296.193 6.26106 295.209 5.05987 294.522C4.45929 294.178 4.00428 293.908 3.70037 293.725C3.54842 293.634 3.43424 293.564 3.35853 293.517C3.32068 293.494 3.29244 293.476 3.2739 293.465C3.26463 293.459 3.25779 293.455 3.25339 293.452C3.25119 293.451 3.24862 293.449 3.24862 293.449L3.24759 293.449C3.24759 293.449 3.2475 293.449 2.88939 294.018ZM100.679 320.014H133.497V318.668H100.679V320.014ZM132.825 319.341V364.655H134.169V319.341H132.825ZM133.497 363.982H2.88939V365.328H133.497V363.982ZM2.21744 364.655L2.21743 390.643H3.56134L3.56134 364.655H2.21744ZM2.88938 391.317H158.111V389.97H2.88938V391.317ZM158.783 390.643V293.796H157.439V390.643H158.783ZM158.111 461.779H158.783V461.285L158.312 461.137L158.111 461.779ZM2.88938 412.911L3.09085 412.269L2.21743 411.995V412.911H2.88938ZM2.88938 440.233H2.21743V440.73L2.69177 440.877L2.88938 440.233ZM43.2469 452.672H43.9189V452.175L43.4445 452.029L43.2469 452.672ZM43.2469 504.206L43.4445 504.849L43.9189 504.703V504.206H43.2469ZM2.88938 516.645L2.69177 516.001L2.21743 516.148V516.645H2.88938ZM158.111 495.098L158.313 495.741L158.783 495.592V495.098H158.111ZM67.4171 496.875H66.7451V497.774L67.6059 497.522L67.4171 496.875ZM67.4171 460.002L67.6099 459.358L66.7451 459.098V460.002H67.4171ZM129.506 478.661L129.694 479.307L131.87 478.669L129.698 478.016L129.506 478.661ZM158.312 461.137L3.09085 412.269L2.68792 413.554L157.909 462.422L158.312 461.137ZM2.21743 412.911V440.233H3.56134V412.911H2.21743ZM2.69177 440.877L43.0493 453.316L43.4445 452.029L3.087 439.59L2.69177 440.877ZM42.575 452.672V504.206H43.9189V452.672H42.575ZM43.0493 503.562L2.69177 516.001L3.08699 517.288L3.56134 517.142L43.4445 504.849L43.0493 503.562ZM158.783 495.098V461.779H157.439V494.606V495.098H158.783ZM68.089 496.875V460.002H66.7451V496.875H68.089ZM67.2242 460.647L129.313 479.306L129.698 478.016L67.6099 459.358L67.2242 460.647ZM129.317 478.015L67.2283 496.229L67.6059 497.522L129.694 479.307L129.317 478.015Z"
        fill="url(#paint0_linear)" />
      <path d="M2.88938 516.645H2.21743L2.21743 527.979H3.56133L3.56134 517.142L3.08699 517.288L2.88938 516.645Z"
        fill="url(#paint1_linear)" />
      <path d="M158.313 495.741L158.111 495.098H157.439V494.606L51.8463 528H56.3096L158.313 495.741Z"
        fill="url(#paint2_linear)" />
      <defs>
        <linearGradient id="paint0_linear" x1="80.5" y1="0" x2="80.5" y2="528" gradientUnits="userSpaceOnUse">
          <stop stop-color="#B6E1E8" />
          <stop offset="1" stop-color="#DCDCDC" stop-opacity="0.63" />
        </linearGradient>
        <linearGradient id="paint1_linear" x1="80.5" y1="0" x2="80.5" y2="528" gradientUnits="userSpaceOnUse">
          <stop stop-color="#B6E1E8" />
          <stop offset="1" stop-color="#DCDCDC" stop-opacity="0.63" />
        </linearGradient>
        <linearGradient id="paint2_linear" x1="80.5" y1="0" x2="80.5" y2="528" gradientUnits="userSpaceOnUse">
          <stop stop-color="#B6E1E8" />
          <stop offset="1" stop-color="#DCDCDC" stop-opacity="0.63" />
        </linearGradient>
      </defs>
    </svg>